<?xml version="1.0" encoding="UTF-8"?>
<!DOCTYPE svg PUBLIC "-//W3C//DTD SVG 1.1//EN" "http://www.w3.org/Graphics/SVG/1.1/DTD/svg11.dtd">
<svg xmlns="http://www.w3.org/2000/svg" version="1.1" width="512px" height="512px" style="shape-rendering:geometricPrecision; text-rendering:geometricPrecision; image-rendering:optimizeQuality; fill-rule:evenodd; clip-rule:evenodd" xmlns:xlink="http://www.w3.org/1999/xlink">
<g><path style="opacity:1" fill="#a2a8af" d="M 308.5,48.5 C 304.788,47.9716 301.121,47.1382 297.5,46C 293.405,43.8399 289.072,42.1732 284.5,41C 281.264,38.5809 277.931,36.4142 274.5,34.5C 268.167,32.5 261.833,30.5 255.5,28.5C 249.096,30.6568 242.596,32.6568 236,34.5C 232.459,37.6855 228.293,39.3522 223.5,39.5C 223.5,40.8333 223.5,42.1667 223.5,43.5C 214.949,44.6496 206.949,47.4829 199.5,52C 193.238,53.5613 187.238,55.728 181.5,58.5C 181.389,57.8826 181.056,57.3826 180.5,57C 185.037,52.5622 190.37,49.3956 196.5,47.5C 198.656,45.8718 198.656,44.8718 196.5,44.5C 197.514,43.3263 198.847,42.6596 200.5,42.5C 199.588,43.7382 199.421,45.0715 200,46.5C 208.308,43.6205 216.142,39.7872 223.5,35C 226.5,34.6667 229.5,34.3333 232.5,34C 239.866,30.1741 247.2,27.3408 254.5,25.5C 267.839,28.3901 280.505,33.0568 292.5,39.5C 293.086,39.2907 293.586,38.9574 294,38.5C 298.625,42.2217 303.459,45.555 308.5,48.5 Z"/></g>
<g><path style="opacity:1" fill="#979ca3" d="M 196.5,44.5 C 198.656,44.8718 198.656,45.8718 196.5,47.5C 190.37,49.3956 185.037,52.5622 180.5,57C 181.056,57.3826 181.389,57.8826 181.5,58.5C 178.771,58.7545 176.438,59.7545 174.5,61.5C 173.735,61.0766 172.902,60.7432 172,60.5C 164.065,62.7198 156.565,65.8865 149.5,70C 141.317,70.5054 133.817,73.0054 127,77.5C 126.586,77.0426 126.086,76.7093 125.5,76.5C 121.297,79.5679 116.797,81.9013 112,83.5C 108.334,83.3096 105,84.6429 102,87.5C 100.232,86.3181 100.065,84.9848 101.5,83.5C 133.059,70.22 164.726,57.22 196.5,44.5 Z"/></g>
<g><path style="opacity:1" fill="#a6acb3" d="M 174.5,61.5 C 163.197,65.7804 152.197,70.947 141.5,77C 132.334,80.5863 123.001,83.5863 113.5,86C 107.956,89.0356 102.289,91.8689 96.5,94.5C 94.2985,101.905 90.7985,108.572 86,114.5C 83.6087,119.603 81.6087,124.937 80,130.5C 79.2917,131.381 78.4584,132.047 77.5,132.5C 78.3307,125.537 80.8307,119.204 85,113.5C 87.2824,106.859 89.6158,100.192 92,93.5C 94.5969,91.114 97.0969,88.614 99.5,86C 98.9056,85.5357 98.2389,85.369 97.5,85.5C 98.5137,84.3263 99.847,83.6596 101.5,83.5C 100.065,84.9848 100.232,86.3181 102,87.5C 105,84.6429 108.334,83.3096 112,83.5C 116.797,81.9013 121.297,79.5679 125.5,76.5C 126.086,76.7093 126.586,77.0426 127,77.5C 133.817,73.0054 141.317,70.5054 149.5,70C 156.565,65.8865 164.065,62.7198 172,60.5C 172.902,60.7432 173.735,61.0766 174.5,61.5 Z"/></g>
<g><path style="opacity:1" fill="#959aa1" d="M 97.5,85.5 C 98.2389,85.369 98.9056,85.5357 99.5,86C 97.0969,88.614 94.5969,91.114 92,93.5C 89.6158,100.192 87.2824,106.859 85,113.5C 80.8307,119.204 78.3307,125.537 77.5,132.5C 77.5,132.833 77.5,133.167 77.5,133.5C 76.5178,134.141 75.5178,134.807 74.5,135.5C 70.3161,145.883 65.6495,156.05 60.5,166C 60.8333,166.333 61.1667,166.667 61.5,167C 60.1666,169.009 58.5,170.676 56.5,172C 56.9574,172.414 57.2907,172.914 57.5,173.5C 50.8381,193.146 42.8381,212.146 33.5,230.5C 32.0815,229.995 31.4148,228.995 31.5,227.5C 50.0552,180.832 69.3886,134.499 89.5,88.5C 91.9793,86.9239 94.646,85.9239 97.5,85.5 Z"/></g>
<g><path style="opacity:1" fill="#a4abb2" d="M 77.5,133.5 C 74.8972,144.796 71.5639,155.796 67.5,166.5C 62.3739,171.684 59.3739,178.017 58.5,185.5C 54.4797,193.947 50.313,202.281 46,210.5C 41.79,225.855 35.9567,240.521 28.5,254.5C 29.8521,260.326 31.5187,265.993 33.5,271.5C 31.8818,269.215 29.8818,267.215 27.5,265.5C 26.1132,262.121 25.1132,258.621 24.5,255C 26.6267,248.288 28.9601,241.621 31.5,235C 31.3333,233.5 31.1667,232 31,230.5C 30.6174,231.056 30.1174,231.389 29.5,231.5C 29.6596,229.847 30.3263,228.514 31.5,227.5C 31.4148,228.995 32.0815,229.995 33.5,230.5C 42.8381,212.146 50.8381,193.146 57.5,173.5C 57.2907,172.914 56.9574,172.414 56.5,172C 58.5,170.676 60.1666,169.009 61.5,167C 61.1667,166.667 60.8333,166.333 60.5,166C 65.6495,156.05 70.3161,145.883 74.5,135.5C 75.5178,134.807 76.5178,134.141 77.5,133.5 Z"/></g>
<g><path style="opacity:1" fill="#a2a8b0" d="M 308.5,48.5 C 314.493,48.9811 319.827,51.1477 324.5,55C 334.396,58.4109 344.063,62.4109 353.5,67C 363.613,69.694 373.613,72.694 383.5,76C 388.916,78.4566 394.083,81.2899 399,84.5C 399.333,84.1667 399.667,83.8333 400,83.5C 406.814,87.7685 413.981,91.2685 421.5,94C 421.167,94.3333 420.833,94.6667 420.5,95C 427.006,108.937 432.839,122.77 438,136.5C 438.5,137.667 439.333,138.5 440.5,139C 439.424,140.726 439.257,142.559 440,144.5C 443.933,152.64 447.266,160.973 450,169.5C 460.556,192.135 470.556,215.135 480,238.5C 480.333,238.167 480.667,237.833 481,237.5C 481.176,240.882 481.676,244.215 482.5,247.5C 486.329,250.969 487.329,255.136 485.5,260C 484.016,262.797 482.349,265.464 480.5,268C 480.957,268.414 481.291,268.914 481.5,269.5C 479.902,273.126 478.402,276.793 477,280.5C 475.312,283.613 473.478,286.613 471.5,289.5C 468.734,297.786 465.901,306.12 463,314.5C 458.971,321.741 455.804,329.407 453.5,337.5C 451.494,341.513 448.994,345.18 446,348.5C 444.409,353.024 443.409,357.691 443,362.5C 439.349,368.804 436.515,375.471 434.5,382.5C 430.439,391.121 425.939,399.454 421,407.5C 420.754,410.89 420.254,414.223 419.5,417.5C 416.176,418.828 413.176,420.661 410.5,423C 404.055,424.538 397.722,426.372 391.5,428.5C 391.5,429.5 391.5,430.5 391.5,431.5C 389.473,431.338 387.473,431.505 385.5,432C 384.027,432.71 383.36,433.876 383.5,435.5C 379.306,435.55 375.306,436.383 371.5,438C 369.351,439.152 367.518,440.652 366,442.5C 365.586,442.043 365.086,441.709 364.5,441.5C 361.217,442.475 358.217,443.975 355.5,446C 352.854,446.497 350.187,446.664 347.5,446.5C 347.5,447.5 347.5,448.5 347.5,449.5C 340.845,451.487 334.178,453.487 327.5,455.5C 329.03,452.258 331.696,450.758 335.5,451C 335.167,450.667 334.833,450.333 334.5,450C 340.08,448.811 345.08,446.478 349.5,443C 355.409,440.69 361.409,438.69 367.5,437C 371.825,434.055 376.658,432.222 382,431.5C 391.795,426.134 401.628,420.967 411.5,416C 413.473,415.505 415.473,415.338 417.5,415.5C 417.804,412.478 418.304,409.478 419,406.5C 421.12,402.361 423.287,398.194 425.5,394C 425.355,393.228 425.022,392.561 424.5,392C 428.849,385.463 431.682,378.296 433,370.5C 438.351,360.127 443.518,349.627 448.5,339C 448.167,338.667 447.833,338.333 447.5,338C 450.167,332.675 452.834,327.342 455.5,322C 457.359,316.525 459.025,311.025 460.5,305.5C 461.5,305.5 462.5,305.5 463.5,305.5C 464.091,298.657 466.591,292.657 471,287.5C 471.702,282.02 473.702,276.687 477,271.5C 476.947,268.387 478.114,265.887 480.5,264C 479.863,260.865 480.529,257.865 482.5,255C 479.683,249.201 477.016,243.368 474.5,237.5C 470.817,222.919 465.317,209.252 458,196.5C 456.188,189.203 453.521,182.203 450,175.5C 446.975,171.429 445.641,166.762 446,161.5C 444.392,158.618 443.059,155.618 442,152.5C 441,150.167 439.333,148.5 437,147.5C 433.582,138.67 430.749,129.67 428.5,120.5C 423.557,112.678 420.557,104.012 419.5,94.5C 406.236,90.0128 393.236,84.8462 380.5,79C 369.807,75.828 359.14,72.6613 348.5,69.5C 348.5,68.5 348.5,67.5 348.5,66.5C 344.308,65.4919 340.308,63.9919 336.5,62C 333.568,61.0467 330.568,60.5467 327.5,60.5C 327.5,59.5 327.5,58.5 327.5,57.5C 321.907,56.4789 316.574,54.6456 311.5,52C 309.937,51.2411 308.937,50.0744 308.5,48.5 Z"/></g>
<g><path style="opacity:1" fill="#b5bbc3" d="M 308.5,48.5 C 308.937,50.0744 309.937,51.2411 311.5,52C 316.574,54.6456 321.907,56.4789 327.5,57.5C 327.5,58.5 327.5,59.5 327.5,60.5C 330.568,60.5467 333.568,61.0467 336.5,62C 340.308,63.9919 344.308,65.4919 348.5,66.5C 348.5,67.5 348.5,68.5 348.5,69.5C 359.14,72.6613 369.807,75.828 380.5,79C 393.236,84.8462 406.236,90.0128 419.5,94.5C 420.557,104.012 423.557,112.678 428.5,120.5C 430.749,129.67 433.582,138.67 437,147.5C 439.333,148.5 441,150.167 442,152.5C 443.059,155.618 444.392,158.618 446,161.5C 445.641,166.762 446.975,171.429 450,175.5C 453.521,182.203 456.188,189.203 458,196.5C 465.317,209.252 470.817,222.919 474.5,237.5C 477.016,243.368 479.683,249.201 482.5,255C 480.529,257.865 479.863,260.865 480.5,264C 478.114,265.887 476.947,268.387 477,271.5C 473.702,276.687 471.702,282.02 471,287.5C 466.591,292.657 464.091,298.657 463.5,305.5C 462.5,305.5 461.5,305.5 460.5,305.5C 459.025,311.025 457.359,316.525 455.5,322C 452.834,327.342 450.167,332.675 447.5,338C 447.833,338.333 448.167,338.667 448.5,339C 443.518,349.627 438.351,360.127 433,370.5C 431.682,378.296 428.849,385.463 424.5,392C 425.022,392.561 425.355,393.228 425.5,394C 423.287,398.194 421.12,402.361 419,406.5C 418.304,409.478 417.804,412.478 417.5,415.5C 415.473,415.338 413.473,415.505 411.5,416C 401.628,420.967 391.795,426.134 382,431.5C 376.658,432.222 371.825,434.055 367.5,437C 361.409,438.69 355.409,440.69 349.5,443C 345.08,446.478 340.08,448.811 334.5,450C 334.833,450.333 335.167,450.667 335.5,451C 331.696,450.758 329.03,452.258 327.5,455.5C 315.166,457.222 303.5,461.056 292.5,467C 288.08,467.862 283.747,469.029 279.5,470.5C 273.704,474.712 267.37,477.878 260.5,480C 259,481.5 257.5,483 256,484.5C 253.326,482.129 250.159,480.963 246.5,481C 241.382,476.587 235.382,474.254 228.5,474C 226.733,471.61 224.4,469.943 221.5,469C 216.396,467.613 211.396,465.946 206.5,464C 201.894,461.684 197.561,458.85 193.5,455.5C 175.984,448.327 157.984,441.994 139.5,436.5C 133.88,436.356 128.88,434.523 124.5,431C 119.167,429.167 113.833,427.333 108.5,425.5C 106.085,424.503 104.085,423.003 102.5,421C 99.8103,420.229 97.1436,419.396 94.5,418.5C 94.1373,417.817 93.8039,417.15 93.5,416.5C 93.0728,413.624 92.4062,410.791 91.5,408C 87.0312,400.285 83.6979,392.119 81.5,383.5C 80.1779,383.67 79.0113,383.337 78,382.5C 73.2192,369.066 68.8859,355.399 65,341.5C 63.1815,338.375 61.1815,335.375 59,332.5C 51.0466,313.705 43.7132,294.705 37,275.5C 36.5017,273.456 35.335,272.122 33.5,271.5C 31.5187,265.993 29.8521,260.326 28.5,254.5C 35.9567,240.521 41.79,225.855 46,210.5C 50.313,202.281 54.4797,193.947 58.5,185.5C 59.3739,178.017 62.3739,171.684 67.5,166.5C 71.5639,155.796 74.8972,144.796 77.5,133.5C 77.5,133.167 77.5,132.833 77.5,132.5C 78.4584,132.047 79.2917,131.381 80,130.5C 81.6087,124.937 83.6087,119.603 86,114.5C 90.7985,108.572 94.2985,101.905 96.5,94.5C 102.289,91.8689 107.956,89.0356 113.5,86C 123.001,83.5863 132.334,80.5863 141.5,77C 152.197,70.947 163.197,65.7804 174.5,61.5C 176.438,59.7545 178.771,58.7545 181.5,58.5C 187.238,55.728 193.238,53.5613 199.5,52C 206.949,47.4829 214.949,44.6496 223.5,43.5C 223.5,42.1667 223.5,40.8333 223.5,39.5C 228.293,39.3522 232.459,37.6855 236,34.5C 242.596,32.6568 249.096,30.6568 255.5,28.5C 261.833,30.5 268.167,32.5 274.5,34.5C 277.931,36.4142 281.264,38.5809 284.5,41C 289.072,42.1732 293.405,43.8399 297.5,46C 301.121,47.1382 304.788,47.9716 308.5,48.5 Z"/></g>
<g><path style="opacity:1" fill="#cbcfd7" d="M 72.5,166.5 C 72.5,166.833 72.5,167.167 72.5,167.5C 68.3378,176.089 64.1711,184.755 60,193.5C 52.6129,221.667 50.2796,250.334 53,279.5C 57.0087,307.461 65.5087,333.795 78.5,358.5C 80.3186,361.42 80.9852,364.42 80.5,367.5C 79.8243,366.398 79.1577,365.398 78.5,364.5C 67.4174,344.58 58.584,323.58 52,301.5C 47.0068,294.222 43.3401,286.222 41,277.5C 36.5327,270.885 34.0327,263.552 33.5,255.5C 33.5943,253.077 34.0943,250.744 35,248.5C 41.7609,234.302 47.4276,219.636 52,204.5C 54.2148,202.21 55.8815,199.543 57,196.5C 58.1345,191.433 59.4678,186.433 61,181.5C 63.4561,176.634 65.6228,171.634 67.5,166.5C 71.9758,160.088 75.3091,153.088 77.5,145.5C 78.5,145.5 79.5,145.5 80.5,145.5C 77.9849,152.563 75.3182,159.563 72.5,166.5 Z"/></g>
<g><path style="opacity:1" fill="#aeb4bc" d="M 72.5,167.5 C 70.9946,173.722 70.328,180.055 70.5,186.5C 70.5,186.833 70.5,187.167 70.5,187.5C 69.5041,187.414 68.6708,187.748 68,188.5C 55.2982,224.028 52.9649,260.362 61,297.5C 61.4186,298.672 62.0853,299.672 63,300.5C 64.8592,311.454 67.5259,322.121 71,332.5C 76.6127,343.873 82.1127,355.206 87.5,366.5C 84.5,363.833 81.5,361.167 78.5,358.5C 65.5087,333.795 57.0087,307.461 53,279.5C 50.2796,250.334 52.6129,221.667 60,193.5C 64.1711,184.755 68.3378,176.089 72.5,167.5 Z"/></g>
<g><path style="opacity:1" fill="#fdfdfd" d="M 247.5,142.5 C 290.84,141.423 325.34,158.09 351,192.5C 379.801,239.815 378.135,285.815 346,330.5C 334.727,343.524 321.561,354.357 306.5,363C 294.628,367.014 282.961,370.848 271.5,374.5C 229.994,378.112 195.327,364.779 167.5,334.5C 140.422,300.571 132.922,262.571 145,220.5C 154.871,195.631 170.705,175.465 192.5,160C 194.167,159.667 195.833,159.333 197.5,159C 201.216,155.925 205.216,153.425 209.5,151.5C 215.376,150.152 221.043,148.319 226.5,146C 233.558,144.911 240.558,143.745 247.5,142.5 Z"/></g>
<g><path style="opacity:1" fill="#e1e5ea" d="M 325.5,110.5 C 326.649,110.791 327.316,111.624 327.5,113C 325.188,119.056 322.355,124.89 319,130.5C 317.989,129.663 316.822,129.33 315.5,129.5C 315.286,131.144 315.62,132.644 316.5,134C 320.219,136.364 324.219,137.864 328.5,138.5C 327.939,136.092 327.439,133.759 327,131.5C 329.623,126.59 331.956,121.59 334,116.5C 336.176,116.012 338.009,115.012 339.5,113.5C 335.941,110.894 332.275,108.56 328.5,106.5C 328.454,103.019 329.954,102.686 333,105.5C 333.333,105.167 333.667,104.833 334,104.5C 336.707,105.724 339.207,107.557 341.5,110C 340.978,110.561 340.645,111.228 340.5,112C 341.34,113.171 342.173,114.338 343,115.5C 343.483,114.552 343.649,113.552 343.5,112.5C 349.186,112.836 354.186,113.669 358.5,115C 358.195,118.091 358.528,120.924 359.5,123.5C 357.265,122.771 355.431,121.438 354,119.5C 351.078,120.755 348.411,122.422 346,124.5C 345.612,126.076 346.112,127.409 347.5,128.5C 350.264,126.392 353.264,126.059 356.5,127.5C 353.167,132.5 349.833,137.5 346.5,142.5C 343.97,143.132 341.637,144.132 339.5,145.5C 343.089,148.542 346.922,151.209 351,153.5C 353.981,152.045 354.148,150.378 351.5,148.5C 354.608,142.607 358.441,137.273 363,132.5C 363.772,132.645 364.439,132.978 365,133.5C 365.079,136.831 365.913,139.831 367.5,142.5C 366.761,142.369 366.094,142.536 365.5,143C 367.25,144.754 367.917,146.921 367.5,149.5C 370.247,149.187 372.914,149.52 375.5,150.5C 370.982,151.793 370.649,153.46 374.5,155.5C 377.676,154.142 380.676,152.476 383.5,150.5C 386.086,149.52 388.753,149.187 391.5,149.5C 391.35,146.074 392.516,145.741 395,148.5C 395.667,149.833 396.333,151.167 397,152.5C 397.667,151.167 398.333,151.167 399,152.5C 399.239,155.011 398.072,156.677 395.5,157.5C 396.95,159.986 398.116,159.653 399,156.5C 399.5,162.825 399.666,169.158 399.5,175.5C 400.873,175.343 402.207,175.51 403.5,176C 399.82,178.04 399.82,179.54 403.5,180.5C 402.542,181.962 401.376,183.295 400,184.5C 399.293,189.637 399.793,194.637 401.5,199.5C 401.057,205.258 398.89,205.925 395,201.5C 394.333,198.167 394.333,194.833 395,191.5C 397.435,189.563 397.602,187.73 395.5,186C 390.774,186.89 387.774,189.723 386.5,194.5C 387.5,194.5 388.5,194.5 389.5,194.5C 388.949,205.302 393.949,210.136 404.5,209C 407.589,207.236 408.922,204.57 408.5,201C 407.304,196.243 406.637,191.41 406.5,186.5C 411.51,185.674 413.843,187.841 413.5,193C 412.978,195.21 412.312,197.377 411.5,199.5C 411.527,201.704 412.527,202.538 414.5,202C 416.993,200.434 418.993,198.434 420.5,196C 418.241,192.912 416.741,189.412 416,185.5C 413.181,181.507 409.347,179.84 404.5,180.5C 406.292,179.691 408.292,179.191 410.5,179C 407.456,178.641 407.122,177.974 409.5,177C 407.808,175.599 407.141,173.766 407.5,171.5C 410.167,171.5 412.833,171.5 415.5,171.5C 416.799,171.054 417.132,167.721 416.5,161.5C 417.167,162.167 417.833,162.833 418.5,163.5C 418.833,163.167 419.167,162.833 419.5,162.5C 418.359,161.575 418.359,160.741 419.5,160C 418.672,159.085 417.672,158.419 416.5,158C 418.426,157.578 419.426,156.411 419.5,154.5C 453.197,211.611 457.363,270.944 432,332.5C 426.931,343.643 421.097,354.309 414.5,364.5C 413.5,364.833 412.833,365.5 412.5,366.5C 370.177,422.823 313.51,449.99 242.5,448C 189.515,443.173 145.181,421.339 109.5,382.5C 107.758,379.357 105.758,376.357 103.5,373.5C 105.262,373.643 106.929,373.309 108.5,372.5C 109.167,373.167 109.833,373.833 110.5,374.5C 111.242,372.892 111.409,371.225 111,369.5C 113.719,370.444 116.552,370.777 119.5,370.5C 119.5,374.833 119.5,379.167 119.5,383.5C 122.247,383.813 124.914,383.48 127.5,382.5C 129.397,380.524 131.397,378.69 133.5,377C 130.754,374.507 129.421,371.34 129.5,367.5C 135.627,368.305 138.294,365.805 137.5,360C 139.153,358.195 140.82,356.362 142.5,354.5C 143.736,353.754 145.07,353.421 146.5,353.5C 146.683,351.064 146.016,348.897 144.5,347C 146.081,346.293 147.581,345.46 149,344.5C 149.29,346.111 150.123,347.444 151.5,348.5C 154.611,345.733 157.111,346.4 159,350.5C 161.795,349.217 164.628,349.217 167.5,350.5C 166.408,351.831 165.074,352.664 163.5,353C 164.76,354.113 165.927,354.28 167,353.5C 169.403,354.781 171.237,356.614 172.5,359C 173.5,359.333 174.5,359.667 175.5,360C 175.328,366.041 175.328,372.208 175.5,378.5C 179.383,378.891 183.05,378.224 186.5,376.5C 187.735,377.34 188.735,378.34 189.5,379.5C 182.668,387.335 174.668,393.668 165.5,398.5C 164.289,399.72 164.289,400.887 165.5,402C 168.469,403.484 171.469,404.984 174.5,406.5C 175.399,403.654 176.399,400.82 177.5,398C 180.702,398.086 183.702,399.086 186.5,401C 187.989,404.666 186.655,406.666 182.5,407C 181.978,407.561 181.645,408.228 181.5,409C 185.074,412.375 189.24,414.875 194,416.5C 195.301,415.902 196.135,414.902 196.5,413.5C 195.104,412.148 194.437,410.481 194.5,408.5C 195.44,400.678 196.44,393.011 197.5,385.5C 197.336,388.187 197.503,390.854 198,393.5C 198.333,391.167 198.667,388.833 199,386.5C 200.18,387.684 201.68,388.351 203.5,388.5C 205.539,387.99 207.372,387.99 209,388.5C 210.487,387.747 210.654,386.914 209.5,386C 210.5,385.667 211.5,385.333 212.5,385C 212.167,384.667 211.833,384.333 211.5,384C 215.625,382.774 219.125,383.607 222,386.5C 222.759,385.354 223.426,384.354 224,383.5C 224.5,383.667 225,383.833 225.5,384C 224.167,384.667 224.167,385.333 225.5,386C 228.919,386.521 232.252,387.355 235.5,388.5C 236.262,389.628 236.929,390.795 237.5,392C 236.263,392.232 235.263,392.732 234.5,393.5C 233.167,393.5 231.833,393.5 230.5,393.5C 230.5,394.833 230.5,396.167 230.5,397.5C 231.5,397.5 232.5,397.5 233.5,397.5C 233.726,400.249 233.393,402.916 232.5,405.5C 229.19,406.349 225.856,406.182 222.5,405C 221.398,402.599 221.231,400.099 222,397.5C 225.66,397.102 227.494,395.102 227.5,391.5C 222.126,391.113 216.793,390.446 211.5,389.5C 211.571,392.139 212.571,394.306 214.5,396C 212.922,402.808 211.589,409.641 210.5,416.5C 208.833,416.5 207.167,416.5 205.5,416.5C 205.5,418.167 205.5,419.833 205.5,421.5C 210.789,422.488 216.122,423.155 221.5,423.5C 221.5,422.167 221.5,420.833 221.5,419.5C 220.5,419.5 219.5,419.5 218.5,419.5C 218.833,416.167 219.167,412.833 219.5,409.5C 223.538,409.958 227.538,410.624 231.5,411.5C 231.067,414.166 230.567,416.832 230,419.5C 228.644,420.38 227.144,420.714 225.5,420.5C 225.5,422.167 225.5,423.833 225.5,425.5C 230.433,426.587 235.433,427.253 240.5,427.5C 240.429,424.861 239.429,422.694 237.5,421C 238.823,414.857 239.99,408.691 241,402.5C 242.401,400.808 244.234,400.141 246.5,400.5C 247.509,401.939 247.176,403.272 245.5,404.5C 248.34,409.304 247.34,412.97 242.5,415.5C 241.353,415.182 240.519,414.516 240,413.5C 239.51,414.793 239.343,416.127 239.5,417.5C 241.199,417.34 242.866,417.506 244.5,418C 243.234,418.309 242.067,418.809 241,419.5C 240.667,419.167 240.333,418.833 240,418.5C 239.51,419.793 239.343,421.127 239.5,422.5C 242.272,421.629 244.938,421.629 247.5,422.5C 247.523,420.073 248.023,417.74 249,415.5C 249.202,417.256 249.702,418.922 250.5,420.5C 252.128,420.421 253.795,420.088 255.5,419.5C 255.475,422.179 254.142,423.512 251.5,423.5C 251.5,425.167 251.5,426.833 251.5,428.5C 252.833,428.5 254.167,428.5 255.5,428.5C 258.5,428.5 261.5,428.5 264.5,428.5C 264.5,426.5 264.5,424.5 264.5,422.5C 263.167,422.5 261.833,422.5 260.5,422.5C 260.421,421.07 260.754,419.736 261.5,418.5C 264.913,416.566 268.413,416.232 272,417.5C 273.009,419.025 273.509,420.692 273.5,422.5C 272.5,422.5 271.5,422.5 270.5,422.5C 270.5,423.833 270.5,425.167 270.5,426.5C 275.566,427.716 280.566,427.383 285.5,425.5C 280.57,415.64 275.57,405.64 270.5,395.5C 267.833,394.167 265.167,394.167 262.5,395.5C 260.584,403.128 258.251,410.461 255.5,417.5C 254.158,416.207 252.491,415.374 250.5,415C 251.444,412.281 251.777,409.448 251.5,406.5C 256.325,407.841 257.825,406.175 256,401.5C 255.5,402.5 255,403.5 254.5,404.5C 253.424,405.656 252.424,405.489 251.5,404C 252.167,403.667 252.833,403.333 253.5,403C 252.167,402.333 252.167,401.667 253.5,401C 252.328,400.581 251.328,399.915 250.5,399C 252.163,398.735 253.663,399.235 255,400.5C 256.328,398.978 256.162,397.311 254.5,395.5C 255.025,394.808 255.692,394.308 256.5,394C 255.577,391.959 255.244,389.792 255.5,387.5C 260.833,387.5 266.167,387.5 271.5,387.5C 271.5,388.833 271.5,390.167 271.5,391.5C 272.873,391.343 274.207,391.51 275.5,392C 274.833,392.333 274.167,392.667 273.5,393C 275.525,394.194 275.859,395.694 274.5,397.5C 275.942,400.05 277.108,402.716 278,405.5C 279.552,406.966 281.386,407.966 283.5,408.5C 284.615,410.489 284.282,412.322 282.5,414C 282.667,414.5 282.833,415 283,415.5C 283.826,413.595 284.993,413.261 286.5,414.5C 285.41,415.609 285.41,416.609 286.5,417.5C 287.732,416.855 289.065,416.689 290.5,417C 289.465,415.493 289.632,413.993 291,412.5C 291.915,413.328 292.581,414.328 293,415.5C 294.848,412.823 294.681,410.156 292.5,407.5C 293.428,406.232 293.595,404.899 293,403.5C 292.667,404.167 292.333,404.833 292,405.5C 290.344,402.947 290.177,400.281 291.5,397.5C 288.6,397.72 285.933,397.054 283.5,395.5C 284.811,394.742 285.311,393.742 285,392.5C 283.575,391.921 281.908,391.921 280,392.5C 279.333,390.5 279.333,388.5 280,386.5C 283.164,389.145 284.331,388.145 283.5,383.5C 287.37,382.201 291.37,381.534 295.5,381.5C 295.5,380.167 295.5,378.833 295.5,377.5C 290.167,376.833 284.833,376.167 279.5,375.5C 279.5,377.167 279.5,378.833 279.5,380.5C 276.833,380.5 274.167,380.5 271.5,380.5C 271.5,378.5 271.5,376.5 271.5,374.5C 282.961,370.848 294.628,367.014 306.5,363C 321.561,354.357 334.727,343.524 346,330.5C 378.135,285.815 379.801,239.815 351,192.5C 325.34,158.09 290.84,141.423 247.5,142.5C 253.987,141.672 260.654,141.172 267.5,141C 260.833,140.667 254.167,140.333 247.5,140C 252.833,139.667 258.167,139.333 263.5,139C 257.5,138.333 251.5,138.333 245.5,139C 245,139.5 244.5,140 244,140.5C 231.898,139.656 219.732,138.989 207.5,138.5C 207.5,140.167 207.5,141.833 207.5,143.5C 204.833,143.5 202.167,143.5 199.5,143.5C 199.649,142.448 199.483,141.448 199,140.5C 198.259,141.641 197.425,141.641 196.5,140.5C 195.335,141.491 194.168,142.491 193,143.5C 190.659,142.993 190.159,141.826 191.5,140C 190.906,139.536 190.239,139.369 189.5,139.5C 190.261,138.609 191.261,137.942 192.5,137.5C 193.55,129.138 193.217,120.805 191.5,112.5C 191.986,110.696 192.653,109.029 193.5,107.5C 194.79,104.798 195.79,101.964 196.5,99C 199.542,99.5229 202.542,99.3562 205.5,98.5C 205.48,96.857 206.147,95.5237 207.5,94.5C 214.931,93.6993 222.098,93.0326 229,92.5C 230.617,93.5358 230.784,94.7025 229.5,96C 232.145,97.2865 233.145,99.4532 232.5,102.5C 234.549,103.976 236.716,105.31 239,106.5C 239.398,103.768 240.898,101.935 243.5,101C 240.581,98.0516 240.914,95.5516 244.5,93.5C 244,92.5 243.5,91.5 243,90.5C 241.989,91.3366 240.822,91.67 239.5,91.5C 239.5,90.1667 239.5,88.8333 239.5,87.5C 247.507,87.3336 255.507,87.5003 263.5,88C 265.23,89.8524 266.396,89.6857 267,87.5C 268.593,89.2853 270.093,89.452 271.5,88C 274.146,87.5026 276.813,87.3359 279.5,87.5C 279.296,90.5453 279.296,93.3787 279.5,96C 277.487,96.8753 277.487,98.2087 279.5,100C 277.594,101.993 276.427,101.493 276,98.5C 275.833,99.3333 275.667,100.167 275.5,101C 275.964,103.694 277.297,106.861 279.5,110.5C 282.757,113.171 285.09,112.338 286.5,108C 285.38,101.174 284.38,94.3411 283.5,87.5C 284.833,87.5 286.167,87.5 287.5,87.5C 287.5,88.8333 287.5,90.1667 287.5,91.5C 291.593,91.5222 295.593,92.1888 299.5,93.5C 303.407,92.1888 307.407,91.5222 311.5,91.5C 311.5,90.1667 311.5,88.8333 311.5,87.5C 312.833,87.5 314.167,87.5 315.5,87.5C 315.988,90.7107 315.321,93.544 313.5,96C 315.25,97.3186 317.25,97.8186 319.5,97.5C 319.838,101.151 318.172,102.817 314.5,102.5C 314.07,105.862 315.07,108.695 317.5,111C 314.592,113.314 313.925,116.147 315.5,119.5C 314.5,119.5 313.5,119.5 312.5,119.5C 312.967,121.711 313.967,123.711 315.5,125.5C 317.123,122.135 318.789,118.801 320.5,115.5C 321.522,113.145 323.188,111.478 325.5,110.5 Z"/></g>
<g><path style="opacity:1" fill="#a2a8b0" d="M 333.5,72.5 C 341.566,74.384 348.9,77.884 355.5,83C 357.167,83.3333 358.833,83.6667 360.5,84C 365.88,89.8858 372.213,94.3858 379.5,97.5C 395.344,112.18 410.011,128.013 423.5,145C 423.167,145.333 422.833,145.667 422.5,146C 423.579,146.956 424.745,147.789 426,148.5C 428.981,154.164 431.981,159.831 435,165.5C 437.413,170.574 438.913,175.907 439.5,181.5C 435.959,176.409 433.459,170.742 432,164.5C 428.114,160.941 425.447,156.608 424,151.5C 419.061,144.889 413.727,138.556 408,132.5C 405.133,125.495 400.299,120.162 393.5,116.5C 388.535,109.044 381.869,103.544 373.5,100C 373.833,99.6667 374.167,99.3333 374.5,99C 370.858,96.03 367.191,93.03 363.5,90C 362.216,89.3162 361.049,89.4829 360,90.5C 359.51,89.2068 359.343,87.8734 359.5,86.5C 354.993,84.602 350.327,82.7686 345.5,81C 341.225,78.3797 337.225,75.5464 333.5,72.5 Z"/></g>
<g><path style="opacity:1" fill="#90969d" d="M 333.5,72.5 C 337.225,75.5464 341.225,78.3797 345.5,81C 350.327,82.7686 354.993,84.602 359.5,86.5C 359.343,87.8734 359.51,89.2068 360,90.5C 361.049,89.4829 362.216,89.3162 363.5,90C 367.191,93.03 370.858,96.03 374.5,99C 374.167,99.3333 373.833,99.6667 373.5,100C 381.869,103.544 388.535,109.044 393.5,116.5C 400.299,120.162 405.133,125.495 408,132.5C 413.727,138.556 419.061,144.889 424,151.5C 425.447,156.608 428.114,160.941 432,164.5C 433.459,170.742 435.959,176.409 439.5,181.5C 442.311,188.383 444.978,195.383 447.5,202.5C 451.785,229.027 452.618,255.694 450,282.5C 447.317,290.28 445.65,298.28 445,306.5C 443.499,310.506 441.999,314.506 440.5,318.5C 440.709,319.086 441.043,319.586 441.5,320C 438.371,324.326 436.371,329.159 435.5,334.5C 432.15,340.991 428.65,347.324 425,353.5C 422.664,354.292 422.164,355.625 423.5,357.5C 423,358.5 422.5,359.5 422,360.5C 421.667,360.167 421.333,359.833 421,359.5C 420.167,361.167 419.333,362.833 418.5,364.5C 417.042,365.782 415.708,365.782 414.5,364.5C 421.097,354.309 426.931,343.643 432,332.5C 457.363,270.944 453.197,211.611 419.5,154.5C 386.667,103.546 340,73.3793 279.5,64C 211.674,57.4933 154.841,79.3266 109,129.5C 58.5954,192.25 48.9287,260.917 80,335.5C 86.5392,349.154 94.3725,361.821 103.5,373.5C 105.758,376.357 107.758,379.357 109.5,382.5C 108.577,383.303 107.577,383.47 106.5,383C 103.54,378.91 100.706,374.744 98,370.5C 97.6667,370.833 97.3333,371.167 97,371.5C 95.1667,369 93.3333,366.5 91.5,364C 90.552,363.517 89.552,363.351 88.5,363.5C 87.8537,358.845 85.8537,354.845 82.5,351.5C 81.8757,346.381 79.7091,342.048 76,338.5C 67.0217,313.975 60.855,288.809 57.5,263C 58.6815,251.249 59.5148,239.415 60,227.5C 63.8444,214.179 67.3444,200.846 70.5,187.5C 70.5,187.167 70.5,186.833 70.5,186.5C 74.1398,176.405 78.6398,166.738 84,157.5C 86.0004,153.144 89.167,149.977 93.5,148C 92.5494,147.282 92.3828,146.449 93,145.5C 97.2652,139.057 101.765,132.724 106.5,126.5C 110.507,123.652 114.341,120.652 118,117.5C 118.251,115.567 118.751,113.734 119.5,112C 127.128,107.031 134.128,101.364 140.5,95C 143.343,93.2169 146.343,91.7169 149.5,90.5C 150.95,89.1502 151.617,87.4835 151.5,85.5C 155.49,86.3845 158.323,85.0511 160,81.5C 160.414,81.9574 160.914,82.2907 161.5,82.5C 170.2,77.2088 179.533,73.3755 189.5,71C 190.973,70.2904 191.64,69.1238 191.5,67.5C 195.819,66.9645 200.152,66.4645 204.5,66C 205.667,65.5 206.5,64.6667 207,63.5C 207.333,63.8333 207.667,64.1667 208,64.5C 212.985,62.8083 218.152,61.6417 223.5,61C 230.243,60.7162 236.91,59.8828 243.5,58.5C 249.452,59.1048 255.452,59.1048 261.5,58.5C 286.4,59.7479 310.4,64.4146 333.5,72.5 Z"/></g>
<g><path style="opacity:1" fill="#6bb495" d="M 186.5,200.5 C 186.5,226.5 186.5,252.5 186.5,278.5C 205.167,278.5 223.833,278.5 242.5,278.5C 241.432,279.434 240.099,279.768 238.5,279.5C 220.833,279.5 203.167,279.5 185.5,279.5C 185.5,254.5 185.5,229.5 185.5,204.5C 185.232,202.901 185.566,201.568 186.5,200.5 Z"/></g>
<g><path style="opacity:1" fill="#b4bfc3" d="M 185.5,204.5 C 185.5,229.5 185.5,254.5 185.5,279.5C 203.167,279.5 220.833,279.5 238.5,279.5C 238.5,280.833 238.5,282.167 238.5,283.5C 219.5,283.5 200.5,283.5 181.5,283.5C 181.5,257.167 181.5,230.833 181.5,204.5C 182.833,204.5 184.167,204.5 185.5,204.5 Z"/></g>
<g><path style="opacity:1" fill="#129053" d="M 240.5,186.5 C 242.492,216.815 243.159,247.482 242.5,278.5C 223.833,278.5 205.167,278.5 186.5,278.5C 186.5,252.5 186.5,226.5 186.5,200.5C 190.298,199.132 194.298,198.132 198.5,197.5C 197.791,198.404 196.791,198.737 195.5,198.5C 195.5,199.5 195.5,200.5 195.5,201.5C 192.833,201.5 190.167,201.5 187.5,201.5C 187.5,226.833 187.5,252.167 187.5,277.5C 205.5,277.5 223.5,277.5 241.5,277.5C 241.5,247.833 241.5,218.167 241.5,188.5C 236.584,189.64 231.918,191.473 227.5,194C 219.409,194.171 211.409,195.005 203.5,196.5C 215.406,192.005 227.739,188.671 240.5,186.5 Z"/></g>
<g><path style="opacity:1" fill="#d9443c" d="M 275.5,191.5 C 273.984,193.199 272.984,195.199 272.5,197.5C 273.67,200.849 273.67,204.182 272.5,207.5C 270.952,205.078 269.286,205.078 267.5,207.5C 266.779,213.95 268.279,219.95 272,225.5C 273.356,226.38 274.856,226.714 276.5,226.5C 276.5,225.5 276.5,224.5 276.5,223.5C 279.5,223.167 280.833,224.5 280.5,227.5C 279.127,227.343 277.793,227.51 276.5,228C 278.439,228.908 279.439,230.408 279.5,232.5C 281.781,232.077 283.448,232.744 284.5,234.5C 283.833,234.5 283.167,234.5 282.5,234.5C 265.189,225.849 261.022,212.849 270,195.5C 271.451,193.536 273.284,192.203 275.5,191.5 Z"/></g>
<g><path style="opacity:1" fill="#bdb9bd" d="M 276.5,189.5 C 276.167,190.167 275.833,190.833 275.5,191.5C 273.284,192.203 271.451,193.536 270,195.5C 261.022,212.849 265.189,225.849 282.5,234.5C 285.171,236.118 288.171,236.785 291.5,236.5C 272.813,239.937 262.479,231.937 260.5,212.5C 260.755,204.156 264.088,197.323 270.5,192C 272.407,190.878 274.407,190.045 276.5,189.5 Z"/></g>
<g><path style="opacity:1" fill="#a4dbc0" d="M 240.5,186.5 C 241.209,185.596 242.209,185.263 243.5,185.5C 243.831,216.671 243.498,247.671 242.5,278.5C 243.159,247.482 242.492,216.815 240.5,186.5 Z"/></g>
<g><path style="opacity:1" fill="#e5382f" d="M 301.5,188.5 C 315.506,194.87 320.006,205.537 315,220.5C 310.279,229.103 303.112,234.103 293.5,235.5C 290.43,235.632 287.43,235.299 284.5,234.5C 283.448,232.744 281.781,232.077 279.5,232.5C 279.439,230.408 278.439,228.908 276.5,228C 277.793,227.51 279.127,227.343 280.5,227.5C 280.833,224.5 279.5,223.167 276.5,223.5C 276.5,224.5 276.5,225.5 276.5,226.5C 274.856,226.714 273.356,226.38 272,225.5C 268.279,219.95 266.779,213.95 267.5,207.5C 269.286,205.078 270.952,205.078 272.5,207.5C 273.67,204.182 273.67,200.849 272.5,197.5C 272.984,195.199 273.984,193.199 275.5,191.5C 283.733,187.385 292.4,186.385 301.5,188.5 Z"/></g>
<g><path style="opacity:1" fill="#019d53" d="M 198.5,197.5 C 200.042,196.699 201.708,196.366 203.5,196.5C 211.409,195.005 219.409,194.171 227.5,194C 231.918,191.473 236.584,189.64 241.5,188.5C 241.5,218.167 241.5,247.833 241.5,277.5C 223.5,277.5 205.5,277.5 187.5,277.5C 187.5,252.167 187.5,226.833 187.5,201.5C 190.167,201.5 192.833,201.5 195.5,201.5C 195.5,200.5 195.5,199.5 195.5,198.5C 196.791,198.737 197.791,198.404 198.5,197.5 Z"/></g>
<g><path style="opacity:1" fill="#ce554c" d="M 301.5,188.5 C 292.4,186.385 283.733,187.385 275.5,191.5C 275.833,190.833 276.167,190.167 276.5,189.5C 284.736,184.748 293.069,184.414 301.5,188.5 Z"/></g>
<g><path style="opacity:1" fill="#0d0d0f" d="M 403.5,180.5 C 403.833,180.5 404.167,180.5 404.5,180.5C 409.347,179.84 413.181,181.507 416,185.5C 416.741,189.412 418.241,192.912 420.5,196C 418.993,198.434 416.993,200.434 414.5,202C 412.527,202.538 411.527,201.704 411.5,199.5C 412.312,197.377 412.978,195.21 413.5,193C 413.843,187.841 411.51,185.674 406.5,186.5C 406.637,191.41 407.304,196.243 408.5,201C 408.922,204.57 407.589,207.236 404.5,209C 393.949,210.136 388.949,205.302 389.5,194.5C 388.5,194.5 387.5,194.5 386.5,194.5C 387.774,189.723 390.774,186.89 395.5,186C 397.602,187.73 397.435,189.563 395,191.5C 394.333,194.833 394.333,198.167 395,201.5C 398.89,205.925 401.057,205.258 401.5,199.5C 399.793,194.637 399.293,189.637 400,184.5C 401.376,183.295 402.542,181.962 403.5,180.5 Z"/></g>
<g><path style="opacity:1" fill="#0e0e10" d="M 395.5,157.5 C 390.534,166.436 385.867,175.436 381.5,184.5C 378.162,181.662 375.162,178.495 372.5,175C 373.354,173.978 374.354,173.145 375.5,172.5C 378.057,173.82 379.724,172.987 380.5,170C 379.072,167.815 377.405,165.815 375.5,164C 371.62,162.749 370.287,163.915 371.5,167.5C 370.833,168.833 369.833,169.833 368.5,170.5C 365.978,167.812 363.644,164.979 361.5,162C 362.354,160.978 363.354,160.145 364.5,159.5C 366.098,160.485 367.765,160.651 369.5,160C 376.357,157.416 383.191,154.916 390,152.5C 392.932,152.931 394.766,154.598 395.5,157.5 Z"/></g>
<g><path style="opacity:1" fill="#a2a8b0" d="M 333.5,72.5 C 310.4,64.4146 286.4,59.7479 261.5,58.5C 255.452,59.1048 249.452,59.1048 243.5,58.5C 236.91,59.8828 230.243,60.7162 223.5,61C 218.152,61.6417 212.985,62.8083 208,64.5C 207.667,64.1667 207.333,63.8333 207,63.5C 206.5,64.6667 205.667,65.5 204.5,66C 200.152,66.4645 195.819,66.9645 191.5,67.5C 191.64,69.1238 190.973,70.2904 189.5,71C 179.533,73.3755 170.2,77.2088 161.5,82.5C 160.914,82.2907 160.414,81.9574 160,81.5C 158.323,85.0511 155.49,86.3845 151.5,85.5C 151.617,87.4835 150.95,89.1502 149.5,90.5C 146.343,91.7169 143.343,93.2169 140.5,95C 134.128,101.364 127.128,107.031 119.5,112C 118.751,113.734 118.251,115.567 118,117.5C 114.341,120.652 110.507,123.652 106.5,126.5C 101.765,132.724 97.2652,139.057 93,145.5C 92.3828,146.449 92.5494,147.282 93.5,148C 89.167,149.977 86.0004,153.144 84,157.5C 78.6398,166.738 74.1398,176.405 70.5,186.5C 70.328,180.055 70.9946,173.722 72.5,167.5C 72.5,167.167 72.5,166.833 72.5,166.5C 73.5,166.5 74.5,166.5 75.5,166.5C 77.068,163.69 78.4013,160.69 79.5,157.5C 83.9341,151.896 87.7674,145.896 91,139.5C 91.49,138.207 91.6567,136.873 91.5,135.5C 92.8221,135.67 93.9887,135.337 95,134.5C 99.2882,126.216 105.288,119.549 113,114.5C 113.69,111.804 115.19,109.637 117.5,108C 122.427,103.569 127.76,99.7352 133.5,96.5C 134.612,95.7348 135.279,94.7348 135.5,93.5C 137.5,91.5 139.5,89.5 141.5,87.5C 144.932,86.9117 147.765,85.245 150,82.5C 158.233,80.873 165.733,77.7064 172.5,73C 172.167,72.6667 171.833,72.3333 171.5,72C 181.824,68.2861 192.324,64.7861 203,61.5C 204.169,60.9915 205.002,60.1581 205.5,59C 236.483,54.4083 267.483,54.4083 298.5,59C 302.166,59.6659 305.666,60.8326 309,62.5C 309.772,62.3552 310.439,62.0219 311,61.5C 318.152,64.5771 325.318,67.5771 332.5,70.5C 333.298,70.9569 333.631,71.6236 333.5,72.5 Z"/></g>
<g><path style="opacity:1" fill="#d1d6dd" d="M 421.5,119.5 C 424.093,128.025 427.26,136.358 431,144.5C 441.873,161.409 449.873,179.743 455,199.5C 459.432,204.585 461.766,210.585 462,217.5C 465.465,223.437 468.131,229.77 470,236.5C 473.826,242.141 476.993,248.141 479.5,254.5C 476.657,258.86 473.823,263.194 471,267.5C 469.348,272.406 468.015,277.406 467,282.5C 460.161,297.013 454.494,312.013 450,327.5C 446.283,336.871 442.116,345.871 437.5,354.5C 434.761,357.671 432.761,361.338 431.5,365.5C 431.432,357.413 433.932,350.08 439,343.5C 440.46,340.252 441.626,336.919 442.5,333.5C 442.5,333.167 442.5,332.833 442.5,332.5C 445.533,327.271 448.2,321.771 450.5,316C 461.756,280.352 463.423,244.186 455.5,207.5C 454.5,207.5 453.5,207.5 452.5,207.5C 451.279,196.67 447.946,186.504 442.5,177C 441.474,173.116 440.307,169.283 439,165.5C 434.191,157.99 430.191,149.99 427,141.5C 423.549,138.044 420.882,134.044 419,129.5C 413.885,125.719 409.385,121.219 405.5,116C 400.582,112.916 396.915,108.75 394.5,103.5C 393.448,103.649 392.448,103.483 391.5,103C 386.601,97.2657 381.268,92.0991 375.5,87.5C 375.351,86.448 375.517,85.448 376,84.5C 380.933,86.0721 385.433,88.5721 389.5,92C 394.544,93.4039 399.544,94.9039 404.5,96.5C 404.5,97.5 404.5,98.5 404.5,99.5C 407.044,99.1043 409.211,99.771 411,101.5C 414.397,107.106 416.563,113.106 417.5,119.5C 418.833,119.5 420.167,119.5 421.5,119.5 Z"/></g>
<g><path style="opacity:1" fill="#c9ced6" d="M 421.5,119.5 C 420.167,119.5 418.833,119.5 417.5,119.5C 416.563,113.106 414.397,107.106 411,101.5C 409.211,99.771 407.044,99.1043 404.5,99.5C 404.5,98.5 404.5,97.5 404.5,96.5C 399.544,94.9039 394.544,93.4039 389.5,92C 385.433,88.5721 380.933,86.0721 376,84.5C 375.517,85.448 375.351,86.448 375.5,87.5C 372.309,86.9078 369.309,85.7411 366.5,84C 361.813,80.6409 356.813,77.6409 351.5,75C 337.951,69.8936 324.618,64.2269 311.5,58C 274.832,47.8765 238.165,48.0432 201.5,58.5C 186.601,63.5201 171.934,69.0201 157.5,75C 153.239,77.5906 148.906,80.0906 144.5,82.5C 143.74,84.3604 142.74,86.027 141.5,87.5C 139.5,89.5 137.5,91.5 135.5,93.5C 132.551,93.9314 129.884,95.0981 127.5,97C 120.748,104.075 113.082,110.075 104.5,115C 99.7219,121.78 94.2219,127.947 88,133.5C 88.0258,137.305 86.1924,139.305 82.5,139.5C 84.1241,135.341 85.2907,131.007 86,126.5C 87.093,124.651 88.4263,122.984 90,121.5C 91.4189,112.231 94.5856,103.731 99.5,96C 126.814,86.347 153.481,75.0137 179.5,62C 186.449,58.6845 193.783,56.3512 201.5,55C 203.921,52.9063 206.588,51.2396 209.5,50C 217.153,48.5093 224.486,46.176 231.5,43C 232.833,41 234.5,39.3333 236.5,38C 242.595,36.148 248.595,34.3147 254.5,32.5C 265.011,33.7596 274.678,37.2596 283.5,43C 288.348,42.8503 292.014,44.8503 294.5,49C 301.794,49.5379 308.127,52.2046 313.5,57C 330.718,62.068 347.051,69.068 362.5,78C 370.792,79.4879 378.792,81.8212 386.5,85C 392.945,89.7288 400.112,93.2288 408,95.5C 409.587,96.6699 411.253,97.6699 413,98.5C 413.531,102.009 414.531,105.342 416,108.5C 417,109.167 418,109.833 419,110.5C 419.849,113.521 420.683,116.521 421.5,119.5 Z"/></g>
<g><path style="opacity:1" fill="#e0e4ea" d="M 120.5,92.5 C 121.552,92.3505 122.552,92.5172 123.5,93C 118.738,98.6377 113.238,103.471 107,107.5C 102.538,114.955 97.0377,121.455 90.5,127C 90.8333,127.333 91.1667,127.667 91.5,128C 90.5165,128.591 89.8499,128.257 89.5,127C 90.4788,124.567 91.1455,122.067 91.5,119.5C 92.5,119.5 93.5,119.5 94.5,119.5C 94.3398,117.801 94.5065,116.134 95,114.5C 97.3455,110.807 99.0122,106.807 100,102.5C 107.169,99.6244 114.002,96.291 120.5,92.5 Z"/></g>
<g><path style="opacity:1" fill="#b6bbc4" d="M 375.5,87.5 C 381.268,92.0991 386.601,97.2657 391.5,103C 392.448,103.483 393.448,103.649 394.5,103.5C 396.915,108.75 400.582,112.916 405.5,116C 409.385,121.219 413.885,125.719 419,129.5C 420.882,134.044 423.549,138.044 427,141.5C 430.191,149.99 434.191,157.99 439,165.5C 440.307,169.283 441.474,173.116 442.5,177C 447.946,186.504 451.279,196.67 452.5,207.5C 453.5,207.5 454.5,207.5 455.5,207.5C 463.423,244.186 461.756,280.352 450.5,316C 448.2,321.771 445.533,327.271 442.5,332.5C 442.196,331.85 441.863,331.183 441.5,330.5C 442.609,328.615 443.443,326.615 444,324.5C 444.654,325.696 445.154,325.696 445.5,324.5C 445.167,323.833 444.833,323.167 444.5,322.5C 447.068,312.097 449.901,301.764 453,291.5C 459.841,256.447 457.008,222.28 444.5,189C 443.337,186.042 441.67,183.542 439.5,181.5C 438.913,175.907 437.413,170.574 435,165.5C 431.981,159.831 428.981,154.164 426,148.5C 424.745,147.789 423.579,146.956 422.5,146C 422.833,145.667 423.167,145.333 423.5,145C 410.011,128.013 395.344,112.18 379.5,97.5C 372.213,94.3858 365.88,89.8858 360.5,84C 358.833,83.6667 357.167,83.3333 355.5,83C 348.9,77.884 341.566,74.384 333.5,72.5C 333.631,71.6236 333.298,70.9569 332.5,70.5C 325.318,67.5771 318.152,64.5771 311,61.5C 310.439,62.0219 309.772,62.3552 309,62.5C 305.666,60.8326 302.166,59.6659 298.5,59C 267.483,54.4083 236.483,54.4083 205.5,59C 205.002,60.1581 204.169,60.9915 203,61.5C 192.324,64.7861 181.824,68.2861 171.5,72C 171.833,72.3333 172.167,72.6667 172.5,73C 165.733,77.7064 158.233,80.873 150,82.5C 147.765,85.245 144.932,86.9117 141.5,87.5C 142.74,86.027 143.74,84.3604 144.5,82.5C 148.906,80.0906 153.239,77.5906 157.5,75C 171.934,69.0201 186.601,63.5201 201.5,58.5C 238.165,48.0432 274.832,47.8765 311.5,58C 324.618,64.2269 337.951,69.8936 351.5,75C 356.813,77.6409 361.813,80.6409 366.5,84C 369.309,85.7411 372.309,86.9078 375.5,87.5 Z"/></g>
<g><path style="opacity:1" fill="#e2e6eb" d="M 419.5,154.5 C 419.426,156.411 418.426,157.578 416.5,158C 417.672,158.419 418.672,159.085 419.5,160C 418.359,160.741 418.359,161.575 419.5,162.5C 419.167,162.833 418.833,163.167 418.5,163.5C 417.833,162.833 417.167,162.167 416.5,161.5C 417.132,167.721 416.799,171.054 415.5,171.5C 412.833,171.5 410.167,171.5 407.5,171.5C 407.141,173.766 407.808,175.599 409.5,177C 407.122,177.974 407.456,178.641 410.5,179C 408.292,179.191 406.292,179.691 404.5,180.5C 404.167,180.5 403.833,180.5 403.5,180.5C 399.82,179.54 399.82,178.04 403.5,176C 402.207,175.51 400.873,175.343 399.5,175.5C 399.666,169.158 399.5,162.825 399,156.5C 398.116,159.653 396.95,159.986 395.5,157.5C 398.072,156.677 399.239,155.011 399,152.5C 398.333,151.167 397.667,151.167 397,152.5C 396.333,151.167 395.667,149.833 395,148.5C 392.516,145.741 391.35,146.074 391.5,149.5C 388.753,149.187 386.086,149.52 383.5,150.5C 380.676,152.476 377.676,154.142 374.5,155.5C 370.649,153.46 370.982,151.793 375.5,150.5C 372.914,149.52 370.247,149.187 367.5,149.5C 367.917,146.921 367.25,144.754 365.5,143C 366.094,142.536 366.761,142.369 367.5,142.5C 370.173,139.151 371.506,135.151 371.5,130.5C 366.601,129.717 362.601,127.383 359.5,123.5C 358.528,120.924 358.195,118.091 358.5,115C 354.186,113.669 349.186,112.836 343.5,112.5C 343.649,113.552 343.483,114.552 343,115.5C 342.173,114.338 341.34,113.171 340.5,112C 340.645,111.228 340.978,110.561 341.5,110C 339.207,107.557 336.707,105.724 334,104.5C 333.667,104.833 333.333,105.167 333,105.5C 329.954,102.686 328.454,103.019 328.5,106.5C 326.554,107.035 325.554,108.368 325.5,110.5C 323.188,111.478 321.522,113.145 320.5,115.5C 318.789,118.801 317.123,122.135 315.5,125.5C 313.967,123.711 312.967,121.711 312.5,119.5C 313.5,119.5 314.5,119.5 315.5,119.5C 313.925,116.147 314.592,113.314 317.5,111C 315.07,108.695 314.07,105.862 314.5,102.5C 318.172,102.817 319.838,101.151 319.5,97.5C 317.25,97.8186 315.25,97.3186 313.5,96C 315.321,93.544 315.988,90.7107 315.5,87.5C 314.167,87.5 312.833,87.5 311.5,87.5C 311.5,88.8333 311.5,90.1667 311.5,91.5C 307.407,91.5222 303.407,92.1888 299.5,93.5C 295.593,92.1888 291.593,91.5222 287.5,91.5C 287.5,90.1667 287.5,88.8333 287.5,87.5C 286.167,87.5 284.833,87.5 283.5,87.5C 284.38,94.3411 285.38,101.174 286.5,108C 285.09,112.338 282.757,113.171 279.5,110.5C 277.297,106.861 275.964,103.694 275.5,101C 275.667,100.167 275.833,99.3333 276,98.5C 276.427,101.493 277.594,101.993 279.5,100C 277.487,98.2087 277.487,96.8753 279.5,96C 279.296,93.3787 279.296,90.5453 279.5,87.5C 276.813,87.3359 274.146,87.5026 271.5,88C 270.093,89.452 268.593,89.2853 267,87.5C 266.396,89.6857 265.23,89.8524 263.5,88C 255.507,87.5003 247.507,87.3336 239.5,87.5C 239.5,88.8333 239.5,90.1667 239.5,91.5C 240.822,91.67 241.989,91.3366 243,90.5C 243.5,91.5 244,92.5 244.5,93.5C 240.914,95.5516 240.581,98.0516 243.5,101C 240.898,101.935 239.398,103.768 239,106.5C 236.716,105.31 234.549,103.976 232.5,102.5C 233.145,99.4532 232.145,97.2865 229.5,96C 230.784,94.7025 230.617,93.5358 229,92.5C 222.098,93.0326 214.931,93.6993 207.5,94.5C 206.147,95.5237 205.48,96.857 205.5,98.5C 202.542,99.3562 199.542,99.5229 196.5,99C 195.79,101.964 194.79,104.798 193.5,107.5C 192.527,106.016 191.193,105.516 189.5,106C 187.664,107.419 185.664,108.586 183.5,109.5C 182.571,110.689 182.238,112.022 182.5,113.5C 184.451,113.227 185.951,113.893 187,115.5C 187.39,119.514 187.89,123.514 188.5,127.5C 188.167,128.5 187.833,129.5 187.5,130.5C 184.481,126.647 180.981,123.313 177,120.5C 176.504,118.965 176.67,117.465 177.5,116C 177.387,114.72 176.72,113.887 175.5,113.5C 171.504,115.163 167.837,117.329 164.5,120C 171.769,125.596 178.769,131.596 185.5,138C 186.745,138.791 188.078,139.291 189.5,139.5C 190.239,139.369 190.906,139.536 191.5,140C 190.159,141.826 190.659,142.993 193,143.5C 194.168,142.491 195.335,141.491 196.5,140.5C 197.425,141.641 198.259,141.641 199,140.5C 199.483,141.448 199.649,142.448 199.5,143.5C 202.167,143.5 204.833,143.5 207.5,143.5C 207.5,141.833 207.5,140.167 207.5,138.5C 219.732,138.989 231.898,139.656 244,140.5C 244.5,140 245,139.5 245.5,139C 251.5,138.333 257.5,138.333 263.5,139C 258.167,139.333 252.833,139.667 247.5,140C 254.167,140.333 260.833,140.667 267.5,141C 260.654,141.172 253.987,141.672 247.5,142.5C 240.558,143.745 233.558,144.911 226.5,146C 221.043,148.319 215.376,150.152 209.5,151.5C 205.216,153.425 201.216,155.925 197.5,159C 195.833,159.333 194.167,159.667 192.5,160C 170.705,175.465 154.871,195.631 145,220.5C 132.922,262.571 140.422,300.571 167.5,334.5C 195.327,364.779 229.994,378.112 271.5,374.5C 271.5,376.5 271.5,378.5 271.5,380.5C 274.167,380.5 276.833,380.5 279.5,380.5C 279.5,378.833 279.5,377.167 279.5,375.5C 284.833,376.167 290.167,376.833 295.5,377.5C 295.5,378.833 295.5,380.167 295.5,381.5C 291.37,381.534 287.37,382.201 283.5,383.5C 284.331,388.145 283.164,389.145 280,386.5C 279.333,388.5 279.333,390.5 280,392.5C 281.908,391.921 283.575,391.921 285,392.5C 285.311,393.742 284.811,394.742 283.5,395.5C 285.933,397.054 288.6,397.72 291.5,397.5C 290.177,400.281 290.344,402.947 292,405.5C 292.333,404.833 292.667,404.167 293,403.5C 293.595,404.899 293.428,406.232 292.5,407.5C 294.681,410.156 294.848,412.823 293,415.5C 292.581,414.328 291.915,413.328 291,412.5C 289.632,413.993 289.465,415.493 290.5,417C 289.065,416.689 287.732,416.855 286.5,417.5C 285.41,416.609 285.41,415.609 286.5,414.5C 284.993,413.261 283.826,413.595 283,415.5C 282.833,415 282.667,414.5 282.5,414C 284.282,412.322 284.615,410.489 283.5,408.5C 281.386,407.966 279.552,406.966 278,405.5C 277.108,402.716 275.942,400.05 274.5,397.5C 275.859,395.694 275.525,394.194 273.5,393C 274.167,392.667 274.833,392.333 275.5,392C 274.207,391.51 272.873,391.343 271.5,391.5C 271.5,390.167 271.5,388.833 271.5,387.5C 266.167,387.5 260.833,387.5 255.5,387.5C 255.244,389.792 255.577,391.959 256.5,394C 255.692,394.308 255.025,394.808 254.5,395.5C 256.162,397.311 256.328,398.978 255,400.5C 253.663,399.235 252.163,398.735 250.5,399C 251.328,399.915 252.328,400.581 253.5,401C 252.167,401.667 252.167,402.333 253.5,403C 252.833,403.333 252.167,403.667 251.5,404C 252.424,405.489 253.424,405.656 254.5,404.5C 255,403.5 255.5,402.5 256,401.5C 257.825,406.175 256.325,407.841 251.5,406.5C 251.777,409.448 251.444,412.281 250.5,415C 252.491,415.374 254.158,416.207 255.5,417.5C 255.5,418.167 255.5,418.833 255.5,419.5C 253.795,420.088 252.128,420.421 250.5,420.5C 249.702,418.922 249.202,417.256 249,415.5C 248.023,417.74 247.523,420.073 247.5,422.5C 244.938,421.629 242.272,421.629 239.5,422.5C 239.343,421.127 239.51,419.793 240,418.5C 240.333,418.833 240.667,419.167 241,419.5C 242.067,418.809 243.234,418.309 244.5,418C 242.866,417.506 241.199,417.34 239.5,417.5C 239.343,416.127 239.51,414.793 240,413.5C 240.519,414.516 241.353,415.182 242.5,415.5C 247.34,412.97 248.34,409.304 245.5,404.5C 247.176,403.272 247.509,401.939 246.5,400.5C 246.5,398.833 246.5,397.167 246.5,395.5C 242.236,395.656 238.236,394.989 234.5,393.5C 235.263,392.732 236.263,392.232 237.5,392C 236.929,390.795 236.262,389.628 235.5,388.5C 232.252,387.355 228.919,386.521 225.5,386C 224.167,385.333 224.167,384.667 225.5,384C 225,383.833 224.5,383.667 224,383.5C 223.426,384.354 222.759,385.354 222,386.5C 219.125,383.607 215.625,382.774 211.5,384C 211.833,384.333 212.167,384.667 212.5,385C 211.5,385.333 210.5,385.667 209.5,386C 210.654,386.914 210.487,387.747 209,388.5C 207.372,387.99 205.539,387.99 203.5,388.5C 201.68,388.351 200.18,387.684 199,386.5C 198.667,388.833 198.333,391.167 198,393.5C 197.503,390.854 197.336,388.187 197.5,385.5C 197.762,384.022 197.429,382.689 196.5,381.5C 194.668,380.752 193.001,379.752 191.5,378.5C 190.817,378.863 190.15,379.196 189.5,379.5C 188.735,378.34 187.735,377.34 186.5,376.5C 183.05,378.224 179.383,378.891 175.5,378.5C 175.328,372.208 175.328,366.041 175.5,360C 174.5,359.667 173.5,359.333 172.5,359C 171.237,356.614 169.403,354.781 167,353.5C 165.927,354.28 164.76,354.113 163.5,353C 165.074,352.664 166.408,351.831 167.5,350.5C 164.628,349.217 161.795,349.217 159,350.5C 157.111,346.4 154.611,345.733 151.5,348.5C 150.123,347.444 149.29,346.111 149,344.5C 147.581,345.46 146.081,346.293 144.5,347C 146.016,348.897 146.683,351.064 146.5,353.5C 145.07,353.421 143.736,353.754 142.5,354.5C 140.82,356.362 139.153,358.195 137.5,360C 138.294,365.805 135.627,368.305 129.5,367.5C 129.421,371.34 130.754,374.507 133.5,377C 131.397,378.69 129.397,380.524 127.5,382.5C 124.914,383.48 122.247,383.813 119.5,383.5C 119.5,379.167 119.5,374.833 119.5,370.5C 116.552,370.777 113.719,370.444 111,369.5C 111.409,371.225 111.242,372.892 110.5,374.5C 109.833,373.833 109.167,373.167 108.5,372.5C 106.929,373.309 105.262,373.643 103.5,373.5C 94.3725,361.821 86.5392,349.154 80,335.5C 48.9287,260.917 58.5954,192.25 109,129.5C 154.841,79.3266 211.674,57.4933 279.5,64C 340,73.3793 386.667,103.546 419.5,154.5 Z"/></g>
<g><path style="opacity:1" fill="#0f0f10" d="M 106.5,176.5 C 108.65,177.815 109.984,179.815 110.5,182.5C 116.676,185.325 122.176,188.992 127,193.5C 128.953,202.87 125.286,208.536 116,210.5C 110.104,208.386 104.438,205.72 99,202.5C 97.7147,202.95 96.548,203.617 95.5,204.5C 93.7172,203.652 93.2172,202.319 94,200.5C 95.3333,197.833 96.6667,195.167 98,192.5C 99.6354,191.151 101.135,191.318 102.5,193C 101.269,194.183 101.269,195.349 102.5,196.5C 107.501,199.251 112.668,201.585 118,203.5C 122.356,201.59 123.523,198.423 121.5,194C 117.007,191.921 112.674,189.588 108.5,187C 106.801,186.607 105.301,187.107 104,188.5C 103.228,188.355 102.561,188.022 102,187.5C 102.671,183.607 104.171,179.94 106.5,176.5 Z"/></g>
<g><path style="opacity:1" fill="#c7c7ca" d="M 384.5,158.5 C 385.376,158.369 386.043,158.702 386.5,159.5C 385.167,161.5 383.833,163.5 382.5,165.5C 380.244,164.579 379.244,162.912 379.5,160.5C 381.553,160.598 383.22,159.931 384.5,158.5 Z"/></g>
<g><path style="opacity:1" fill="#0e0e10" d="M 132.5,143.5 C 136.115,144.248 137.282,146.248 136,149.5C 141.866,154.369 147.366,159.536 152.5,165C 151.705,166.795 150.538,168.295 149,169.5C 141.383,167.516 133.883,165.683 126.5,164C 130.356,167.1 134.023,170.433 137.5,174C 139.035,174.496 140.535,174.33 142,173.5C 143.059,173.63 143.892,174.13 144.5,175C 142.355,178.312 139.688,181.146 136.5,183.5C 135.5,183.167 134.833,182.5 134.5,181.5C 135.326,180.549 135.492,179.549 135,178.5C 130.785,173.985 126.285,169.818 121.5,166C 119.865,165.46 118.532,165.96 117.5,167.5C 116.28,167.113 115.613,166.28 115.5,165C 116.985,162.844 118.485,160.677 120,158.5C 120.804,157.196 121.971,156.529 123.5,156.5C 129.067,158.478 134.734,159.645 140.5,160C 137.354,157.688 134.354,155.188 131.5,152.5C 128.235,155.45 126.735,154.783 127,150.5C 129.454,148.559 131.287,146.225 132.5,143.5 Z"/></g>
<g><path style="opacity:1" fill="#101011" d="M 359.5,123.5 C 362.601,127.383 366.601,129.717 371.5,130.5C 371.506,135.151 370.173,139.151 367.5,142.5C 365.913,139.831 365.079,136.831 365,133.5C 364.439,132.978 363.772,132.645 363,132.5C 358.441,137.273 354.608,142.607 351.5,148.5C 354.148,150.378 353.981,152.045 351,153.5C 346.922,151.209 343.089,148.542 339.5,145.5C 341.637,144.132 343.97,143.132 346.5,142.5C 349.833,137.5 353.167,132.5 356.5,127.5C 353.264,126.059 350.264,126.392 347.5,128.5C 346.112,127.409 345.612,126.076 346,124.5C 348.411,122.422 351.078,120.755 354,119.5C 355.431,121.438 357.265,122.771 359.5,123.5 Z"/></g>
<g><path style="opacity:1" fill="#0e0e0f" d="M 153.5,126.5 C 156.599,127.287 157.266,129.121 155.5,132C 158.652,136.489 161.819,140.989 165,145.5C 166.396,147.527 168.062,147.86 170,146.5C 170.833,147.333 171.667,148.167 172.5,149C 168.976,152.025 165.309,154.858 161.5,157.5C 160.5,157.167 159.833,156.5 159.5,155.5C 160.833,154.38 161.333,153.047 161,151.5C 157.425,147.347 154.091,143.014 151,138.5C 148.344,137.846 145.844,136.679 143.5,135C 147.09,132.386 150.424,129.552 153.5,126.5 Z"/></g>
<g><path style="opacity:1" fill="#101112" d="M 328.5,106.5 C 332.275,108.56 335.941,110.894 339.5,113.5C 338.009,115.012 336.176,116.012 334,116.5C 331.956,121.59 329.623,126.59 327,131.5C 327.439,133.759 327.939,136.092 328.5,138.5C 324.219,137.864 320.219,136.364 316.5,134C 315.62,132.644 315.286,131.144 315.5,129.5C 316.822,129.33 317.989,129.663 319,130.5C 322.355,124.89 325.188,119.056 327.5,113C 327.316,111.624 326.649,110.791 325.5,110.5C 325.554,108.368 326.554,107.035 328.5,106.5 Z"/></g>
<g><path style="opacity:1" fill="#101012" d="M 193.5,107.5 C 192.653,109.029 191.986,110.696 191.5,112.5C 193.217,120.805 193.55,129.138 192.5,137.5C 191.261,137.942 190.261,138.609 189.5,139.5C 188.078,139.291 186.745,138.791 185.5,138C 178.769,131.596 171.769,125.596 164.5,120C 167.837,117.329 171.504,115.163 175.5,113.5C 176.72,113.887 177.387,114.72 177.5,116C 176.67,117.465 176.504,118.965 177,120.5C 180.981,123.313 184.481,126.647 187.5,130.5C 187.833,129.5 188.167,128.5 188.5,127.5C 187.89,123.514 187.39,119.514 187,115.5C 185.951,113.893 184.451,113.227 182.5,113.5C 182.238,112.022 182.571,110.689 183.5,109.5C 185.664,108.586 187.664,107.419 189.5,106C 191.193,105.516 192.527,106.016 193.5,107.5 Z"/></g>
<g><path style="opacity:1" fill="#0f0f11" d="M 232.5,102.5 C 232.585,103.995 231.919,104.995 230.5,105.5C 226.181,101.39 221.181,100.39 215.5,102.5C 215.993,104.806 216.326,107.139 216.5,109.5C 218.167,109.5 219.833,109.5 221.5,109.5C 221.5,107.833 221.5,106.167 221.5,104.5C 222.675,104.281 223.675,104.614 224.5,105.5C 226.117,109.014 227.117,112.681 227.5,116.5C 224.644,115.172 221.644,114.172 218.5,113.5C 219.159,116.455 219.492,119.455 219.5,122.5C 225.786,122.2 230.119,119.2 232.5,113.5C 233.689,112.571 235.022,112.238 236.5,112.5C 236.079,116.2 235.412,119.867 234.5,123.5C 226.892,125.754 219.226,127.754 211.5,129.5C 211.167,128.833 210.833,128.167 210.5,127.5C 211.362,125.913 212.029,124.246 212.5,122.5C 211.397,117.154 210.231,111.82 209,106.5C 207.951,104.893 206.451,104.227 204.5,104.5C 204.5,103.167 204.5,101.833 204.5,100.5C 212.047,99.0717 219.547,97.405 227,95.5C 229.327,97.5085 231.16,99.8418 232.5,102.5 Z"/></g>
<g><path style="opacity:1" fill="#54555a" d="M 311.5,100.5 C 312.482,103.962 312.815,107.629 312.5,111.5C 310.901,111.768 309.568,111.434 308.5,110.5C 309.5,110.5 310.5,110.5 311.5,110.5C 311.5,107.167 311.5,103.833 311.5,100.5 Z"/></g>
<g><path style="opacity:1" fill="#111112" d="M 311.5,100.5 C 311.5,103.833 311.5,107.167 311.5,110.5C 310.5,110.5 309.5,110.5 308.5,110.5C 306.372,105.041 302.372,102.374 296.5,102.5C 296.178,104.722 296.845,106.556 298.5,108C 302.873,109.713 306.707,112.213 310,115.5C 311.67,123.334 308.503,127.667 300.5,128.5C 297.063,128.448 294.063,127.281 291.5,125C 289.527,124.505 287.527,124.338 285.5,124.5C 285.5,120.5 285.5,116.5 285.5,112.5C 287.167,112.5 288.833,112.5 290.5,112.5C 291.326,119.836 295.326,123.336 302.5,123C 303.517,121.951 303.684,120.784 303,119.5C 298.382,116.55 294.048,113.216 290,109.5C 287.978,102.026 290.811,98.0261 298.5,97.5C 302.769,98.8025 307.102,99.8025 311.5,100.5 Z"/></g>
<g><path style="opacity:1" fill="#0d0d0f" d="M 266.5,93.5 C 274.185,95.2039 276.185,99.5373 272.5,106.5C 270.954,107.684 269.287,108.684 267.5,109.5C 269.306,112.472 271.306,115.305 273.5,118C 274.793,118.49 276.127,118.657 277.5,118.5C 277.5,119.833 277.5,121.167 277.5,122.5C 274.102,122.82 270.768,122.487 267.5,121.5C 264.833,117.833 262.167,114.167 259.5,110.5C 258.675,109.614 257.675,109.281 256.5,109.5C 256.5,112.5 256.5,115.5 256.5,118.5C 257.5,118.5 258.5,118.5 259.5,118.5C 259.5,119.833 259.5,121.167 259.5,122.5C 254.833,122.5 250.167,122.5 245.5,122.5C 245.5,121.167 245.5,119.833 245.5,118.5C 246.822,118.67 247.989,118.337 249,117.5C 249.821,110.654 249.654,103.987 248.5,97.5C 247.194,96.5326 246.527,95.1993 246.5,93.5C 253.167,93.5 259.833,93.5 266.5,93.5 Z"/></g>
<g><path style="opacity:1" fill="#dbdde1" d="M 256.5,98.5 C 259.85,98.335 263.183,98.5017 266.5,99C 267.935,101.267 267.602,103.267 265.5,105C 262.518,105.498 259.518,105.665 256.5,105.5C 256.5,103.167 256.5,100.833 256.5,98.5 Z"/></g>
<g><path style="opacity:1" fill="#848588" d="M 266.5,93.5 C 259.833,93.5 253.167,93.5 246.5,93.5C 246.527,95.1993 247.194,96.5326 248.5,97.5C 247.5,97.5 246.5,97.5 245.5,97.5C 245.5,95.8333 245.5,94.1667 245.5,92.5C 252.687,92.1755 259.687,92.5088 266.5,93.5 Z"/></g>
<g><path style="opacity:1" fill="#d2d6dc" d="M 253.5,34.5 C 255.199,34.3398 256.866,34.5065 258.5,35C 268.725,40.1859 279.391,44.1859 290.5,47C 292.158,48.6239 293.825,50.2906 295.5,52C 282.711,50.8715 269.878,49.7049 257,48.5C 244.119,49.2301 231.286,50.0634 218.5,51C 226.987,47.0369 235.654,43.3703 244.5,40C 243.167,39.3333 243.167,38.6667 244.5,38C 247.65,36.9644 250.65,35.7977 253.5,34.5 Z"/></g>
<g><path style="opacity:1" fill="#a1a6ae" d="M 439.5,181.5 C 441.67,183.542 443.337,186.042 444.5,189C 457.008,222.28 459.841,256.447 453,291.5C 449.901,301.764 447.068,312.097 444.5,322.5C 444.833,323.167 445.167,323.833 445.5,324.5C 445.154,325.696 444.654,325.696 444,324.5C 443.443,326.615 442.609,328.615 441.5,330.5C 441.863,331.183 442.196,331.85 442.5,332.5C 442.5,332.833 442.5,333.167 442.5,333.5C 440.784,334.574 439.784,336.241 439.5,338.5C 438.675,339.386 437.675,339.719 436.5,339.5C 434.991,344.201 433.158,348.868 431,353.5C 423.387,367.117 414.22,379.617 403.5,391C 402.906,391.464 402.239,391.631 401.5,391.5C 400.448,391.351 399.448,391.517 398.5,392C 397.028,395.971 394.362,398.805 390.5,400.5C 389.479,404.023 387.145,405.856 383.5,406C 382.5,407.667 381.5,409.333 380.5,411C 372.191,414.307 365.191,419.307 359.5,426C 354.354,427.927 349.687,430.594 345.5,434C 342.832,434.567 340.166,435.067 337.5,435.5C 340.017,433.265 343.017,431.765 346.5,431C 348.746,429.743 350.079,427.91 350.5,425.5C 353.982,425.873 356.982,424.873 359.5,422.5C 371.12,414.214 382.453,405.547 393.5,396.5C 396.457,392.175 400.124,388.509 404.5,385.5C 406.636,382.058 408.636,378.558 410.5,375C 410.167,374.667 409.833,374.333 409.5,374C 411.51,371.626 413.51,369.293 415.5,367C 414.552,366.517 413.552,366.351 412.5,366.5C 412.833,365.5 413.5,364.833 414.5,364.5C 415.708,365.782 417.042,365.782 418.5,364.5C 419.333,362.833 420.167,361.167 421,359.5C 421.333,359.833 421.667,360.167 422,360.5C 422.5,359.5 423,358.5 423.5,357.5C 422.164,355.625 422.664,354.292 425,353.5C 428.65,347.324 432.15,340.991 435.5,334.5C 436.371,329.159 438.371,324.326 441.5,320C 441.043,319.586 440.709,319.086 440.5,318.5C 441.999,314.506 443.499,310.506 445,306.5C 445.65,298.28 447.317,290.28 450,282.5C 452.618,255.694 451.785,229.027 447.5,202.5C 444.978,195.383 442.311,188.383 439.5,181.5 Z"/></g>
<g><path style="opacity:1" fill="#a4aab2" d="M 70.5,187.5 C 67.3444,200.846 63.8444,214.179 60,227.5C 59.5148,239.415 58.6815,251.249 57.5,263C 60.855,288.809 67.0217,313.975 76,338.5C 79.7091,342.048 81.8757,346.381 82.5,351.5C 85.8537,354.845 87.8537,358.845 88.5,363.5C 89.552,363.351 90.552,363.517 91.5,364C 93.3333,366.5 95.1667,369 97,371.5C 97.3333,371.167 97.6667,370.833 98,370.5C 100.706,374.744 103.54,378.91 106.5,383C 107.577,383.47 108.577,383.303 109.5,382.5C 109.624,384.582 110.624,386.082 112.5,387C 111.549,387.718 111.383,388.551 112,389.5C 118.426,394.981 124.593,400.814 130.5,407C 134.46,408.968 137.793,411.635 140.5,415C 141.833,415.333 143.167,415.667 144.5,416C 147.838,420.336 151.838,424.003 156.5,427C 165.265,430.8 173.765,434.966 182,439.5C 182.414,439.043 182.914,438.709 183.5,438.5C 201.915,446.77 221.248,451.27 241.5,452C 252.536,452.45 263.536,451.95 274.5,450.5C 293.658,450.687 311.658,446.187 328.5,437C 331.478,436.304 334.478,435.804 337.5,435.5C 334.738,437.725 331.738,439.725 328.5,441.5C 327.914,441.291 327.414,440.957 327,440.5C 322.697,444.738 317.531,447.571 311.5,449C 298.867,451.46 286.2,453.793 273.5,456C 253.078,456.968 232.745,456.135 212.5,453.5C 210.058,452.281 207.724,450.781 205.5,449C 190.953,446.374 177.287,441.374 164.5,434C 160.973,433.855 157.64,433.022 154.5,431.5C 147.916,427.583 141.916,422.916 136.5,417.5C 131.259,414.928 126.926,411.261 123.5,406.5C 117.383,404.052 113.383,399.719 111.5,393.5C 105.493,391.247 101.493,386.914 99.5,380.5C 98.2643,379.643 96.931,378.977 95.5,378.5C 93.3227,374.137 90.656,370.137 87.5,366.5C 82.1127,355.206 76.6127,343.873 71,332.5C 67.5259,322.121 64.8592,311.454 63,300.5C 62.0853,299.672 61.4186,298.672 61,297.5C 52.9649,260.362 55.2982,224.028 68,188.5C 68.6708,187.748 69.5041,187.414 70.5,187.5 Z"/></g>
<g><path style="opacity:1" fill="#95999f" d="M 29.5,231.5 C 30.1174,231.389 30.6174,231.056 31,230.5C 31.1667,232 31.3333,233.5 31.5,235C 28.9601,241.621 26.6267,248.288 24.5,255C 25.1132,258.621 26.1132,262.121 27.5,265.5C 29.8818,267.215 31.8818,269.215 33.5,271.5C 34.2189,276.593 35.3856,281.593 37,286.5C 37.7504,287.126 38.5838,287.626 39.5,288C 39.1667,288.333 38.8333,288.667 38.5,289C 43.4577,300.733 47.9577,312.567 52,324.5C 54.523,328.86 57.1897,333.194 60,337.5C 61.0919,342.14 62.0919,346.807 63,351.5C 65.239,354.441 66.5723,357.774 67,361.5C 72.1656,374.171 77.999,386.504 84.5,398.5C 83.5221,399.801 83.8555,400.968 85.5,402C 86.1271,404.135 86.6271,406.302 87,408.5C 87.3333,408.167 87.6667,407.833 88,407.5C 89.0296,409.588 89.8629,411.755 90.5,414C 91.1301,415.31 92.1301,416.144 93.5,416.5C 93.8039,417.15 94.1373,417.817 94.5,418.5C 97.1436,419.396 99.8103,420.229 102.5,421C 104.085,423.003 106.085,424.503 108.5,425.5C 113.833,427.333 119.167,429.167 124.5,431C 128.88,434.523 133.88,436.356 139.5,436.5C 148.238,441.095 157.238,445.261 166.5,449C 171.414,449.892 176.08,451.392 180.5,453.5C 191.816,461.155 204.149,466.655 217.5,470C 220.159,471.661 222.825,473.328 225.5,475C 235.422,478.142 245.089,481.975 254.5,486.5C 268.399,481.813 282.066,476.647 295.5,471C 297.219,468.281 299.553,466.281 302.5,465C 311.119,462.079 319.452,458.913 327.5,455.5C 334.178,453.487 340.845,451.487 347.5,449.5C 347.5,448.5 347.5,447.5 347.5,446.5C 350.187,446.664 352.854,446.497 355.5,446C 358.217,443.975 361.217,442.475 364.5,441.5C 365.086,441.709 365.586,442.043 366,442.5C 367.518,440.652 369.351,439.152 371.5,438C 375.306,436.383 379.306,435.55 383.5,435.5C 383.36,433.876 384.027,432.71 385.5,432C 387.473,431.505 389.473,431.338 391.5,431.5C 391.5,430.5 391.5,429.5 391.5,428.5C 397.722,426.372 404.055,424.538 410.5,423C 413.176,420.661 416.176,418.828 419.5,417.5C 420.254,414.223 420.754,410.89 421,407.5C 425.939,399.454 430.439,391.121 434.5,382.5C 436.515,375.471 439.349,368.804 443,362.5C 443.409,357.691 444.409,353.024 446,348.5C 448.994,345.18 451.494,341.513 453.5,337.5C 455.804,329.407 458.971,321.741 463,314.5C 465.901,306.12 468.734,297.786 471.5,289.5C 473.478,286.613 475.312,283.613 477,280.5C 478.402,276.793 479.902,273.126 481.5,269.5C 481.291,268.914 480.957,268.414 480.5,268C 482.349,265.464 484.016,262.797 485.5,260C 487.329,255.136 486.329,250.969 482.5,247.5C 481.676,244.215 481.176,240.882 481,237.5C 480.667,237.833 480.333,238.167 480,238.5C 470.556,215.135 460.556,192.135 450,169.5C 447.266,160.973 443.933,152.64 440,144.5C 439.257,142.559 439.424,140.726 440.5,139C 439.333,138.5 438.5,137.667 438,136.5C 432.839,122.77 427.006,108.937 420.5,95C 420.833,94.6667 421.167,94.3333 421.5,94C 413.981,91.2685 406.814,87.7685 400,83.5C 399.667,83.8333 399.333,84.1667 399,84.5C 394.083,81.2899 388.916,78.4566 383.5,76C 373.613,72.694 363.613,69.694 353.5,67C 344.063,62.4109 334.396,58.4109 324.5,55C 319.827,51.1477 314.493,48.9811 308.5,48.5C 303.459,45.555 298.625,42.2217 294,38.5C 293.586,38.9574 293.086,39.2907 292.5,39.5C 280.505,33.0568 267.839,28.3901 254.5,25.5C 247.2,27.3408 239.866,30.1741 232.5,34C 229.5,34.3333 226.5,34.6667 223.5,35C 216.142,39.7872 208.308,43.6205 200,46.5C 199.421,45.0715 199.588,43.7382 200.5,42.5C 218.693,34.5725 237.026,26.9058 255.5,19.5C 311.485,42.4993 367.151,65.9993 422.5,90C 445.366,144.933 468.032,199.933 490.5,255C 468.088,310.659 445.255,366.159 422,421.5C 366.535,445.069 310.868,468.069 255,490.5C 199.784,468.393 144.784,445.726 90,422.5C 88.5232,421.556 87.5232,420.223 87,418.5C 64.7929,364.045 42.2929,309.712 19.5,255.5C 22.8485,247.474 26.1818,239.474 29.5,231.5 Z"/></g>
<g><path style="opacity:1" fill="#b2b8c0" d="M 401.5,391.5 C 400.618,393.084 399.785,394.751 399,396.5C 396.833,397.333 395.333,398.833 394.5,401C 393.552,401.483 392.552,401.649 391.5,401.5C 391.762,402.978 391.429,404.311 390.5,405.5C 387.015,408.484 383.682,411.651 380.5,415C 378.51,416.751 376.177,417.751 373.5,418C 365.099,425.216 355.766,431.049 345.5,435.5C 344.614,436.325 344.281,437.325 344.5,438.5C 332.838,443.165 321.172,447.832 309.5,452.5C 302.572,453.273 295.739,454.606 289,456.5C 288.228,456.355 287.561,456.022 287,455.5C 276.007,457.878 264.84,458.878 253.5,458.5C 239.425,458.963 225.759,457.296 212.5,453.5C 232.745,456.135 253.078,456.968 273.5,456C 286.2,453.793 298.867,451.46 311.5,449C 317.531,447.571 322.697,444.738 327,440.5C 327.414,440.957 327.914,441.291 328.5,441.5C 331.738,439.725 334.738,437.725 337.5,435.5C 340.166,435.067 342.832,434.567 345.5,434C 349.687,430.594 354.354,427.927 359.5,426C 365.191,419.307 372.191,414.307 380.5,411C 381.5,409.333 382.5,407.667 383.5,406C 387.145,405.856 389.479,404.023 390.5,400.5C 394.362,398.805 397.028,395.971 398.5,392C 399.448,391.517 400.448,391.351 401.5,391.5 Z"/></g>
<g><path style="opacity:1" fill="#a3a9b1" d="M 139.5,436.5 C 157.984,441.994 175.984,448.327 193.5,455.5C 197.561,458.85 201.894,461.684 206.5,464C 211.396,465.946 216.396,467.613 221.5,469C 224.4,469.943 226.733,471.61 228.5,474C 235.382,474.254 241.382,476.587 246.5,481C 250.159,480.963 253.326,482.129 256,484.5C 257.5,483 259,481.5 260.5,480C 267.37,477.878 273.704,474.712 279.5,470.5C 283.747,469.029 288.08,467.862 292.5,467C 303.5,461.056 315.166,457.222 327.5,455.5C 319.452,458.913 311.119,462.079 302.5,465C 299.553,466.281 297.219,468.281 295.5,471C 282.066,476.647 268.399,481.813 254.5,486.5C 245.089,481.975 235.422,478.142 225.5,475C 222.825,473.328 220.159,471.661 217.5,470C 204.149,466.655 191.816,461.155 180.5,453.5C 176.08,451.392 171.414,449.892 166.5,449C 157.238,445.261 148.238,441.095 139.5,436.5 Z"/></g>
<g><path style="opacity:1" fill="#90969c" d="M 412.5,366.5 C 413.552,366.351 414.552,366.517 415.5,367C 413.51,369.293 411.51,371.626 409.5,374C 409.833,374.333 410.167,374.667 410.5,375C 408.636,378.558 406.636,382.058 404.5,385.5C 400.124,388.509 396.457,392.175 393.5,396.5C 382.453,405.547 371.12,414.214 359.5,422.5C 356.982,424.873 353.982,425.873 350.5,425.5C 350.079,427.91 348.746,429.743 346.5,431C 343.017,431.765 340.017,433.265 337.5,435.5C 334.478,435.804 331.478,436.304 328.5,437C 311.658,446.187 293.658,450.687 274.5,450.5C 263.536,451.95 252.536,452.45 241.5,452C 221.248,451.27 201.915,446.77 183.5,438.5C 182.914,438.709 182.414,439.043 182,439.5C 173.765,434.966 165.265,430.8 156.5,427C 151.838,424.003 147.838,420.336 144.5,416C 143.167,415.667 141.833,415.333 140.5,415C 137.793,411.635 134.46,408.968 130.5,407C 124.593,400.814 118.426,394.981 112,389.5C 111.383,388.551 111.549,387.718 112.5,387C 110.624,386.082 109.624,384.582 109.5,382.5C 145.181,421.339 189.515,443.173 242.5,448C 313.51,449.99 370.177,422.823 412.5,366.5 Z"/></g>
<g><path style="opacity:1" fill="#bec2cb" d="M 78.5,358.5 C 81.5,361.167 84.5,363.833 87.5,366.5C 90.656,370.137 93.3227,374.137 95.5,378.5C 96.931,378.977 98.2643,379.643 99.5,380.5C 101.493,386.914 105.493,391.247 111.5,393.5C 113.383,399.719 117.383,404.052 123.5,406.5C 126.926,411.261 131.259,414.928 136.5,417.5C 141.916,422.916 147.916,427.583 154.5,431.5C 157.64,433.022 160.973,433.855 164.5,434C 177.287,441.374 190.953,446.374 205.5,449C 207.724,450.781 210.058,452.281 212.5,453.5C 225.759,457.296 239.425,458.963 253.5,458.5C 264.84,458.878 276.007,457.878 287,455.5C 287.561,456.022 288.228,456.355 289,456.5C 295.739,454.606 302.572,453.273 309.5,452.5C 299.217,455.83 288.55,457.997 277.5,459C 259.502,460.945 241.502,460.945 223.5,459C 217.808,456.603 211.808,455.27 205.5,455C 185.614,446.379 165.614,438.379 145.5,431C 146.167,431.667 146.833,432.333 147.5,433C 152.583,434.962 157.25,437.462 161.5,440.5C 151.871,440.515 143.871,437.015 137.5,430C 131.834,428.779 126.501,426.779 121.5,424C 119.167,423.667 116.833,423.333 114.5,423C 110.972,420.078 107.305,417.578 103.5,415.5C 115.558,420.061 127.725,424.394 140,428.5C 140.667,427.833 140.667,427.167 140,426.5C 137.36,424.105 134.86,421.605 132.5,419C 128.835,417.503 125.502,415.503 122.5,413C 116.823,406.788 110.823,400.954 104.5,395.5C 102.952,391.116 100.119,387.782 96,385.5C 95.0857,383.336 93.919,381.336 92.5,379.5C 89.8527,379.071 87.8527,377.738 86.5,375.5C 86.1667,376 85.8333,376.5 85.5,377C 87.7383,381.553 89.0716,386.386 89.5,391.5C 90.5,391.5 91.5,391.5 92.5,391.5C 91.8035,401.382 95.1368,409.382 102.5,415.5C 100.5,415.167 98.5,414.833 96.5,414.5C 93.359,404.837 89.1923,395.503 84,386.5C 81.2435,379.369 79.4101,372.035 78.5,364.5C 79.1577,365.398 79.8243,366.398 80.5,367.5C 80.9852,364.42 80.3186,361.42 78.5,358.5 Z"/></g>
<g><path style="opacity:1" fill="#898a8e" d="M 260.5,422.5 C 261.833,422.5 263.167,422.5 264.5,422.5C 264.5,424.5 264.5,426.5 264.5,428.5C 261.5,428.5 258.5,428.5 255.5,428.5C 257.948,427.527 260.615,427.194 263.5,427.5C 263.5,426.167 263.5,424.833 263.5,423.5C 262.209,423.737 261.209,423.404 260.5,422.5 Z"/></g>
<g><path style="opacity:1" fill="#cdd1d9" d="M 415.5,394.5 C 415.5,393.5 415.5,392.5 415.5,391.5C 412.768,393.035 410.102,394.869 407.5,397C 404.765,401.387 401.098,404.887 396.5,407.5C 393.722,411.447 390.388,414.947 386.5,418C 388.488,418.18 390.488,418.014 392.5,417.5C 390.101,418.792 387.934,420.459 386,422.5C 383.865,423.127 381.698,423.627 379.5,424C 377.681,424.74 376.348,425.907 375.5,427.5C 375.423,428.75 374.756,429.583 373.5,430C 365.422,431.613 358.088,434.78 351.5,439.5C 343.385,442.698 335.385,446.198 327.5,450C 322.604,451.713 317.604,453.046 312.5,454C 305.504,457.609 298.171,460.109 290.5,461.5C 290.5,462.5 290.5,463.5 290.5,464.5C 279.917,468.961 269.25,473.128 258.5,477C 252.265,477.367 246.598,475.7 241.5,472C 233.93,471.547 227.263,468.88 221.5,464C 201.223,457.07 181.223,449.237 161.5,440.5C 157.25,437.462 152.583,434.962 147.5,433C 146.833,432.333 146.167,431.667 145.5,431C 165.614,438.379 185.614,446.379 205.5,455C 211.808,455.27 217.808,456.603 223.5,459C 241.502,460.945 259.502,460.945 277.5,459C 288.55,457.997 299.217,455.83 309.5,452.5C 321.172,447.832 332.838,443.165 344.5,438.5C 351.691,435.073 359.025,431.906 366.5,429C 369.354,425.136 373.02,422.47 377.5,421C 382.036,416.475 387.036,412.475 392.5,409C 393.745,406.343 395.745,404.51 398.5,403.5C 399.429,402.311 399.762,400.978 399.5,399.5C 400.978,399.762 402.311,399.429 403.5,398.5C 408.653,391.88 414.487,385.88 421,380.5C 421.26,378.382 422.26,376.716 424,375.5C 422.648,380.28 421.648,385.28 421,390.5C 418.795,391.412 416.962,392.745 415.5,394.5 Z"/></g>
<g><path style="opacity:1" fill="#e2e5ea" d="M 231.5,462.5 C 245.733,464.726 260.067,465.059 274.5,463.5C 275.5,463.667 276.5,463.833 277.5,464C 274.469,466.015 271.136,467.181 267.5,467.5C 267.5,468.5 267.5,469.5 267.5,470.5C 263.104,470.702 258.937,471.702 255,473.5C 247.446,470.817 239.946,467.817 232.5,464.5C 231.702,464.043 231.369,463.376 231.5,462.5 Z"/></g>
<g><path style="opacity:1" fill="#929194" d="M 285.5,425.5 C 280.566,427.383 275.566,427.716 270.5,426.5C 275.493,426.084 280.493,425.751 285.5,425.5 Z"/></g>
<g><path style="opacity:1" fill="#d2d6de" d="M 103.5,415.5 C 103.167,415.5 102.833,415.5 102.5,415.5C 95.1368,409.382 91.8035,401.382 92.5,391.5C 91.5,391.5 90.5,391.5 89.5,391.5C 89.0716,386.386 87.7383,381.553 85.5,377C 85.8333,376.5 86.1667,376 86.5,375.5C 87.8527,377.738 89.8527,379.071 92.5,379.5C 93.919,381.336 95.0857,383.336 96,385.5C 100.119,387.782 102.952,391.116 104.5,395.5C 110.823,400.954 116.823,406.788 122.5,413C 125.502,415.503 128.835,417.503 132.5,419C 134.86,421.605 137.36,424.105 140,426.5C 140.667,427.167 140.667,427.833 140,428.5C 127.725,424.394 115.558,420.061 103.5,415.5 Z"/></g>
<g><path style="opacity:1" fill="#0e0e0f" d="M 285.5,425.5 C 280.493,425.751 275.493,426.084 270.5,426.5C 270.5,425.167 270.5,423.833 270.5,422.5C 271.5,422.5 272.5,422.5 273.5,422.5C 273.509,420.692 273.009,419.025 272,417.5C 268.413,416.232 264.913,416.566 261.5,418.5C 260.754,419.736 260.421,421.07 260.5,422.5C 261.209,423.404 262.209,423.737 263.5,423.5C 263.5,424.833 263.5,426.167 263.5,427.5C 260.615,427.194 257.948,427.527 255.5,428.5C 254.167,428.5 252.833,428.5 251.5,428.5C 251.5,426.833 251.5,425.167 251.5,423.5C 254.142,423.512 255.475,422.179 255.5,419.5C 255.5,418.833 255.5,418.167 255.5,417.5C 258.251,410.461 260.584,403.128 262.5,395.5C 265.167,394.167 267.833,394.167 270.5,395.5C 275.57,405.64 280.57,415.64 285.5,425.5 Z"/></g>
<g><path style="opacity:1" fill="#cccbcf" d="M 264.5,404.5 C 265.496,404.414 266.329,404.748 267,405.5C 267.931,407.459 268.764,409.459 269.5,411.5C 267.604,412.466 265.604,412.799 263.5,412.5C 263.833,409.833 264.167,407.167 264.5,404.5 Z"/></g>
<g><path style="opacity:1" fill="#101011" d="M 234.5,393.5 C 238.236,394.989 242.236,395.656 246.5,395.5C 246.5,397.167 246.5,398.833 246.5,400.5C 244.234,400.141 242.401,400.808 241,402.5C 239.99,408.691 238.823,414.857 237.5,421C 239.429,422.694 240.429,424.861 240.5,427.5C 235.433,427.253 230.433,426.587 225.5,425.5C 225.5,423.833 225.5,422.167 225.5,420.5C 227.144,420.714 228.644,420.38 230,419.5C 230.567,416.832 231.067,414.166 231.5,411.5C 227.538,410.624 223.538,409.958 219.5,409.5C 219.167,412.833 218.833,416.167 218.5,419.5C 219.5,419.5 220.5,419.5 221.5,419.5C 221.5,420.833 221.5,422.167 221.5,423.5C 216.122,423.155 210.789,422.488 205.5,421.5C 205.5,419.833 205.5,418.167 205.5,416.5C 207.167,416.5 208.833,416.5 210.5,416.5C 211.589,409.641 212.922,402.808 214.5,396C 212.571,394.306 211.571,392.139 211.5,389.5C 216.793,390.446 222.126,391.113 227.5,391.5C 227.494,395.102 225.66,397.102 222,397.5C 221.231,400.099 221.398,402.599 222.5,405C 225.856,406.182 229.19,406.349 232.5,405.5C 233.393,402.916 233.726,400.249 233.5,397.5C 232.5,397.5 231.5,397.5 230.5,397.5C 230.5,396.167 230.5,394.833 230.5,393.5C 231.833,393.5 233.167,393.5 234.5,393.5 Z"/></g>
<g><path style="opacity:1" fill="#78797b" d="M 158.5,377.5 C 157.515,381.634 157.182,385.968 157.5,390.5C 156.188,385.985 156.188,381.318 157.5,376.5C 158.107,376.624 158.44,376.957 158.5,377.5 Z"/></g>
<g><path style="opacity:1" fill="#0e0d0f" d="M 291.5,397.5 C 290.122,396.766 288.622,396.099 287,395.5C 286.316,394.216 286.483,393.049 287.5,392C 293.231,390.201 298.898,388.201 304.5,386C 312.052,382.783 317.052,384.95 319.5,392.5C 319.123,396.257 317.457,399.257 314.5,401.5C 318.736,405.453 323.736,407.453 329.5,407.5C 329.762,408.978 329.429,410.311 328.5,411.5C 325.833,412.5 323.167,413.5 320.5,414.5C 315.164,410.668 309.497,407.668 303.5,405.5C 303.694,410.979 306.361,413.979 311.5,414.5C 311.5,415.833 311.5,417.167 311.5,418.5C 307.053,419.426 302.72,420.76 298.5,422.5C 294.842,420.639 294.842,419.306 298.5,418.5C 297.146,411.105 294.813,404.105 291.5,397.5 Z"/></g>
<g><path style="opacity:1" fill="#dfe0e4" d="M 304.5,391.5 C 310.36,390.074 312.36,392.074 310.5,397.5C 308.045,398.929 305.545,400.262 303,401.5C 297.832,396.889 298.332,393.556 304.5,391.5 Z"/></g>
<g><path style="opacity:1" fill="#0e0e10" d="M 342.5,363.5 C 343.496,363.414 344.329,363.748 345,364.5C 345,366.5 345,368.5 345,370.5C 347.753,375.008 350.753,379.341 354,383.5C 356.407,393.995 352.241,400.329 341.5,402.5C 335.419,402.405 332.585,399.405 333,393.5C 336.283,390.689 339.117,391.189 341.5,395C 347,396.167 349.167,394 348,388.5C 344.862,383.729 341.362,379.229 337.5,375C 336.216,374.316 335.049,374.483 334,375.5C 332.978,374.646 332.145,373.646 331.5,372.5C 334.895,369.098 338.562,366.098 342.5,363.5 Z"/></g>
<g><path style="opacity:1" fill="#0e0e10" d="M 197.5,385.5 C 196.44,393.011 195.44,400.678 194.5,408.5C 194.437,410.481 195.104,412.148 196.5,413.5C 196.135,414.902 195.301,415.902 194,416.5C 189.24,414.875 185.074,412.375 181.5,409C 181.645,408.228 181.978,407.561 182.5,407C 186.655,406.666 187.989,404.666 186.5,401C 183.702,399.086 180.702,398.086 177.5,398C 176.399,400.82 175.399,403.654 174.5,406.5C 171.469,404.984 168.469,403.484 165.5,402C 164.289,400.887 164.289,399.72 165.5,398.5C 174.668,393.668 182.668,387.335 189.5,379.5C 190.15,379.196 190.817,378.863 191.5,378.5C 193.001,379.752 194.668,380.752 196.5,381.5C 197.429,382.689 197.762,384.022 197.5,385.5 Z"/></g>
<g><path style="opacity:1" fill="#cbcacf" d="M 187.5,388.5 C 188.8,391.024 188.8,393.691 187.5,396.5C 185.668,395.752 184.001,394.752 182.5,393.5C 184.215,391.785 185.881,390.119 187.5,388.5 Z"/></g>
<g><path style="opacity:1" fill="#c1c6ce" d="M 442.5,333.5 C 441.626,336.919 440.46,340.252 439,343.5C 433.932,350.08 431.432,357.413 431.5,365.5C 432.761,361.338 434.761,357.671 437.5,354.5C 437.66,356.199 437.494,357.866 437,359.5C 435.358,361.806 433.858,364.139 432.5,366.5C 429.94,373.444 427.44,380.444 425,387.5C 423.842,387.998 423.009,388.831 422.5,390C 420.52,397.784 417.853,405.284 414.5,412.5C 408.51,415.16 402.844,418.326 397.5,422C 390.273,424.34 382.94,426.173 375.5,427.5C 376.348,425.907 377.681,424.74 379.5,424C 381.698,423.627 383.865,423.127 386,422.5C 387.934,420.459 390.101,418.792 392.5,417.5C 398.377,414.426 404.377,412.259 410.5,411C 412.864,405.653 414.531,400.153 415.5,394.5C 416.962,392.745 418.795,391.412 421,390.5C 421.648,385.28 422.648,380.28 424,375.5C 422.26,376.716 421.26,378.382 421,380.5C 414.487,385.88 408.653,391.88 403.5,398.5C 402.311,399.429 400.978,399.762 399.5,399.5C 399.762,400.978 399.429,402.311 398.5,403.5C 395.745,404.51 393.745,406.343 392.5,409C 387.036,412.475 382.036,416.475 377.5,421C 373.02,422.47 369.354,425.136 366.5,429C 359.025,431.906 351.691,435.073 344.5,438.5C 344.281,437.325 344.614,436.325 345.5,435.5C 355.766,431.049 365.099,425.216 373.5,418C 376.177,417.751 378.51,416.751 380.5,415C 383.682,411.651 387.015,408.484 390.5,405.5C 391.429,404.311 391.762,402.978 391.5,401.5C 392.552,401.649 393.552,401.483 394.5,401C 395.333,398.833 396.833,397.333 399,396.5C 399.785,394.751 400.618,393.084 401.5,391.5C 402.239,391.631 402.906,391.464 403.5,391C 414.22,379.617 423.387,367.117 431,353.5C 433.158,348.868 434.991,344.201 436.5,339.5C 437.675,339.719 438.675,339.386 439.5,338.5C 439.784,336.241 440.784,334.574 442.5,333.5 Z"/></g>
<g><path style="opacity:1" fill="#e1e5eb" d="M 415.5,394.5 C 414.531,400.153 412.864,405.653 410.5,411C 404.377,412.259 398.377,414.426 392.5,417.5C 390.488,418.014 388.488,418.18 386.5,418C 390.388,414.947 393.722,411.447 396.5,407.5C 401.098,404.887 404.765,401.387 407.5,397C 410.102,394.869 412.768,393.035 415.5,391.5C 415.5,392.5 415.5,393.5 415.5,394.5 Z"/></g>
<g><path style="opacity:1" fill="#0e0e10" d="M 151.5,348.5 C 159.382,353.543 166.215,359.876 172,367.5C 172.433,377.216 167.933,380.55 158.5,377.5C 158.44,376.957 158.107,376.624 157.5,376.5C 156.188,381.318 156.188,385.985 157.5,390.5C 158.824,392.558 158.324,394.225 156,395.5C 154,393.5 152,391.5 150,389.5C 149.778,382.904 149.612,376.404 149.5,370C 147.193,370.613 145.36,372.113 144,374.5C 145.115,377.663 144.282,379.997 141.5,381.5C 137.634,378.468 134.301,374.968 131.5,371C 131.613,369.72 132.28,368.887 133.5,368.5C 134.768,369.428 136.101,369.595 137.5,369C 142,364.5 146.5,360 151,355.5C 151.711,353.633 151.211,352.133 149.5,351C 150.381,350.292 151.047,349.458 151.5,348.5 Z"/></g>
<g><path style="opacity:1" fill="#d9dade" d="M 156.5,360.5 C 162.385,361.85 164.718,365.35 163.5,371C 157.884,372.024 154.384,369.858 153,364.5C 154.376,363.295 155.542,361.962 156.5,360.5 Z"/></g>
<g><path style="opacity:1" fill="#0c0c0e" d="M 358.5,345.5 C 366.91,348.026 375.243,350.859 383.5,354C 385.568,354.687 387.568,354.52 389.5,353.5C 390.833,354.167 391.833,355.167 392.5,356.5C 389.333,360.167 386.167,363.833 383,367.5C 380.697,366.256 380.197,364.589 381.5,362.5C 377.698,359.572 374.532,360.239 372,364.5C 369.473,369.484 370.807,371.484 376,370.5C 377.28,370.613 378.113,371.28 378.5,372.5C 376.547,376.12 373.881,379.12 370.5,381.5C 369.354,380.855 368.354,380.022 367.5,379C 368.517,377.951 368.684,376.784 368,375.5C 363.953,367.24 359.787,359.073 355.5,351C 356.741,349.269 357.741,347.436 358.5,345.5 Z"/></g>
<g><path style="opacity:1" fill="#ccccce" d="M 363.5,356.5 C 366.232,355.806 368.899,356.472 371.5,358.5C 370.5,360.167 369.167,361.5 367.5,362.5C 366.143,360.435 364.81,358.435 363.5,356.5 Z"/></g>
<g><path style="opacity:1" fill="#d8dade" d="M 279.5,285.5 C 280.496,299.657 280.829,313.99 280.5,328.5C 295.167,328.5 309.833,328.5 324.5,328.5C 309.676,329.496 294.676,329.829 279.5,329.5C 279.5,314.833 279.5,300.167 279.5,285.5 Z"/></g>
<g><path style="opacity:1" fill="#bcb5bb" d="M 284.5,281.5 C 284.5,295.833 284.5,310.167 284.5,324.5C 297.656,325.496 310.99,325.829 324.5,325.5C 324.5,326.5 324.5,327.5 324.5,328.5C 309.833,328.5 295.167,328.5 280.5,328.5C 280.829,313.99 280.496,299.657 279.5,285.5C 277.733,279.93 274.066,276.097 268.5,274C 264.129,273.371 259.796,273.537 255.5,274.5C 255.5,273.833 255.5,273.167 255.5,272.5C 265.913,267.324 275.079,268.991 283,277.5C 283.791,278.745 284.291,280.078 284.5,281.5 Z"/></g>
<g><path style="opacity:1" fill="#cccfd1" d="M 184.5,289.5 C 182.55,301.918 181.883,314.585 182.5,327.5C 211.5,327.5 240.5,327.5 269.5,327.5C 269.5,326.5 269.5,325.5 269.5,324.5C 270.167,324.5 270.833,324.5 271.5,324.5C 271.5,325.833 271.5,327.167 271.5,328.5C 241.5,328.5 211.5,328.5 181.5,328.5C 181.5,315.5 181.5,302.5 181.5,289.5C 182.5,289.5 183.5,289.5 184.5,289.5 Z"/></g>
<g><path style="opacity:1" fill="#b2b9c0" d="M 184.5,289.5 C 184.833,289.5 185.167,289.5 185.5,289.5C 185.5,300.833 185.5,312.167 185.5,323.5C 213.328,324.498 241.328,324.831 269.5,324.5C 269.5,325.5 269.5,326.5 269.5,327.5C 240.5,327.5 211.5,327.5 182.5,327.5C 181.883,314.585 182.55,301.918 184.5,289.5 Z"/></g>
<g><path style="opacity:1" fill="#d59590" d="M 328.5,269.5 C 329.497,287.659 329.83,305.992 329.5,324.5C 328.081,325.451 326.415,325.784 324.5,325.5C 310.99,325.829 297.656,325.496 284.5,324.5C 299.343,324.829 314.01,324.496 328.5,323.5C 328.5,305.5 328.5,287.5 328.5,269.5 Z"/></g>
<g><path style="opacity:1" fill="#c74747" d="M 284.5,281.5 C 285.496,295.323 285.829,309.323 285.5,323.5C 299.5,323.5 313.5,323.5 327.5,323.5C 327.833,323.5 328.167,323.5 328.5,323.5C 314.01,324.496 299.343,324.829 284.5,324.5C 284.5,310.167 284.5,295.833 284.5,281.5 Z"/></g>
<g><path style="opacity:1" fill="#9291ba" d="M 274.5,285.5 C 275.495,298.323 275.829,311.323 275.5,324.5C 274.167,324.5 272.833,324.5 271.5,324.5C 270.833,324.5 270.167,324.5 269.5,324.5C 241.328,324.831 213.328,324.498 185.5,323.5C 215.519,324.159 245.185,323.492 274.5,321.5C 274.5,309.5 274.5,297.5 274.5,285.5 Z"/></g>
<g><path style="opacity:1" fill="#38347b" d="M 250.5,285.5 C 230.473,286.183 210.307,286.85 190,287.5C 189.127,287.265 188.293,286.931 187.5,286.5C 186.501,298.148 186.168,309.814 186.5,321.5C 215.886,322.802 245.219,322.802 274.5,321.5C 245.185,323.492 215.519,324.159 185.5,323.5C 185.5,312.167 185.5,300.833 185.5,289.5C 185.5,288.167 185.5,286.833 185.5,285.5C 207.167,285.5 228.833,285.5 250.5,285.5 Z"/></g>
<g><path style="opacity:1" fill="#a2a7b0" d="M 33.5,271.5 C 35.335,272.122 36.5017,273.456 37,275.5C 43.7132,294.705 51.0466,313.705 59,332.5C 61.1815,335.375 63.1815,338.375 65,341.5C 68.8859,355.399 73.2192,369.066 78,382.5C 79.0113,383.337 80.1779,383.67 81.5,383.5C 83.6979,392.119 87.0312,400.285 91.5,408C 92.4062,410.791 93.0728,413.624 93.5,416.5C 92.1301,416.144 91.1301,415.31 90.5,414C 89.8629,411.755 89.0296,409.588 88,407.5C 87.6667,407.833 87.3333,408.167 87,408.5C 86.6271,406.302 86.1271,404.135 85.5,402C 83.8555,400.968 83.5221,399.801 84.5,398.5C 77.999,386.504 72.1656,374.171 67,361.5C 66.5723,357.774 65.239,354.441 63,351.5C 62.0919,346.807 61.0919,342.14 60,337.5C 57.1897,333.194 54.523,328.86 52,324.5C 47.9577,312.567 43.4577,300.733 38.5,289C 38.8333,288.667 39.1667,288.333 39.5,288C 38.5838,287.626 37.7504,287.126 37,286.5C 35.3856,281.593 34.2189,276.593 33.5,271.5 Z"/></g>
<g><path style="opacity:1" fill="#39338d" d="M 250.5,285.5 C 258.5,285.5 266.5,285.5 274.5,285.5C 274.5,297.5 274.5,309.5 274.5,321.5C 245.219,322.802 215.886,322.802 186.5,321.5C 186.168,309.814 186.501,298.148 187.5,286.5C 188.293,286.931 189.127,287.265 190,287.5C 210.307,286.85 230.473,286.183 250.5,285.5 Z"/></g>
<g><path style="opacity:1" fill="#fde5dd" d="M 327.5,263.5 C 328.75,263.577 329.583,264.244 330,265.5C 330.829,285.338 330.662,305.004 329.5,324.5C 329.83,305.992 329.497,287.659 328.5,269.5C 327.85,267.565 327.517,265.565 327.5,263.5 Z"/></g>
<g><path style="opacity:1" fill="#d23934" d="M 324.5,260.5 C 325.272,261.694 326.272,262.694 327.5,263.5C 327.517,265.565 327.85,267.565 328.5,269.5C 328.5,287.5 328.5,305.5 328.5,323.5C 328.167,323.5 327.833,323.5 327.5,323.5C 327.667,305.83 327.5,288.164 327,270.5C 325.851,267.221 325.018,263.887 324.5,260.5 Z"/></g>
<g><path style="opacity:1" fill="#bebbbc" d="M 255.5,263.5 C 255.152,265.713 254.319,267.713 253,269.5C 252.204,272.039 252.371,274.372 253.5,276.5C 252.167,277.933 250.667,279.267 249,280.5C 248.72,273.833 250.886,268.167 255.5,263.5 Z"/></g>
<g><path style="opacity:1" fill="#cb5554" d="M 257.5,262.5 C 257.273,265.577 256.273,268.41 254.5,271C 254.57,271.765 254.903,272.265 255.5,272.5C 255.5,273.167 255.5,273.833 255.5,274.5C 255.167,275.5 254.5,276.167 253.5,276.5C 252.371,274.372 252.204,272.039 253,269.5C 254.319,267.713 255.152,265.713 255.5,263.5C 256.167,263.167 256.833,262.833 257.5,262.5 Z"/></g>
<g><path style="opacity:1" fill="#0d0d0f" d="M 407.5,259.5 C 409.479,262.301 411.312,265.301 413,268.5C 416.113,266.845 419.28,265.679 422.5,265C 420.455,267.586 418.789,270.42 417.5,273.5C 420.275,276.044 423.609,277.544 427.5,278C 424.124,279.07 420.79,280.236 417.5,281.5C 419.577,284.624 420.743,287.958 421,291.5C 418.473,289.903 415.806,288.57 413,287.5C 411.208,289.953 409.708,292.62 408.5,295.5C 407.764,292.356 406.264,289.689 404,287.5C 401.105,288.459 398.439,289.793 396,291.5C 397.021,288.137 398.021,284.804 399,281.5C 387.503,278.816 387.67,276.816 399.5,275.5C 398.279,271.756 397.113,268.09 396,264.5C 398.651,267.076 401.818,268.409 405.5,268.5C 406.461,265.574 407.127,262.574 407.5,259.5 Z"/></g>
<g><path style="opacity:1" fill="#0e0e0f" d="M 101.5,259.5 C 103.339,262.529 104.673,265.862 105.5,269.5C 108.409,267.644 111.409,265.977 114.5,264.5C 114.833,264.833 115.167,265.167 115.5,265.5C 113.833,268.167 112.167,270.833 110.5,273.5C 113.432,275.654 116.766,277.154 120.5,278C 117.647,279.43 114.647,280.263 111.5,280.5C 111.854,284.23 113.187,287.563 115.5,290.5C 112.968,290.931 110.634,290.098 108.5,288C 107.207,287.51 105.873,287.343 104.5,287.5C 102.844,299.466 101.178,299.466 99.5,287.5C 95.7337,287.715 92.4003,289.049 89.5,291.5C 89.1667,291.167 88.8333,290.833 88.5,290.5C 90.1667,287.833 91.8333,285.167 93.5,282.5C 90.209,281.003 86.8756,279.503 83.5,278C 86.3751,276.698 89.3751,275.865 92.5,275.5C 92.2847,271.734 90.9513,268.4 88.5,265.5C 88.8333,265.167 89.1667,264.833 89.5,264.5C 92.1667,266.167 94.8333,267.833 97.5,269.5C 99.4035,266.365 100.737,263.032 101.5,259.5 Z"/></g>
<g><path style="opacity:1" fill="#e0e3e7" d="M 44.5,236.5 C 45.8298,242.463 46.4964,248.796 46.5,255.5C 46.1667,261.833 45.8333,268.167 45.5,274.5C 43.9735,271.256 42.6402,267.923 41.5,264.5C 38.0131,262.527 36.3464,259.527 36.5,255.5C 37.5176,252.273 38.3509,248.94 39,245.5C 41.6679,242.977 43.5012,239.977 44.5,236.5 Z"/></g>
<g><path style="opacity:1" fill="#e5382f" d="M 305.5,244.5 C 313.692,247.697 320.025,253.031 324.5,260.5C 325.018,263.887 325.851,267.221 327,270.5C 327.5,288.164 327.667,305.83 327.5,323.5C 313.5,323.5 299.5,323.5 285.5,323.5C 285.829,309.323 285.496,295.323 284.5,281.5C 284.291,280.078 283.791,278.745 283,277.5C 275.079,268.991 265.913,267.324 255.5,272.5C 254.903,272.265 254.57,271.765 254.5,271C 256.273,268.41 257.273,265.577 257.5,262.5C 258.931,257.987 261.597,254.32 265.5,251.5C 267.167,251.5 268.833,251.5 270.5,251.5C 270.5,250.5 270.5,249.5 270.5,248.5C 279.352,248.579 279.685,249.746 271.5,252C 275.99,256.11 278.656,255.277 279.5,249.5C 282.788,249.073 285.788,249.74 288.5,251.5C 289.429,250.311 289.762,248.978 289.5,247.5C 288.203,246.485 284.203,245.985 277.5,246C 280.755,244.909 284.089,243.909 287.5,243C 293.505,243.159 299.505,243.659 305.5,244.5 Z"/></g>
<g><path style="opacity:1" fill="#de4138" d="M 305.5,244.5 C 299.505,243.659 293.505,243.159 287.5,243C 284.089,243.909 280.755,244.909 277.5,246C 284.203,245.985 288.203,246.485 289.5,247.5C 289.762,248.978 289.429,250.311 288.5,251.5C 285.788,249.74 282.788,249.073 279.5,249.5C 278.656,255.277 275.99,256.11 271.5,252C 279.685,249.746 279.352,248.579 270.5,248.5C 270.5,249.5 270.5,250.5 270.5,251.5C 268.833,251.5 267.167,251.5 265.5,251.5C 277.391,241.077 290.725,238.744 305.5,244.5 Z"/></g>
<g><path style="opacity:1" fill="#d08987" d="M 282.5,234.5 C 283.167,234.5 283.833,234.5 284.5,234.5C 287.43,235.299 290.43,235.632 293.5,235.5C 293.158,236.338 292.492,236.672 291.5,236.5C 288.171,236.785 285.171,236.118 282.5,234.5 Z"/></g>
</svg>
